<?xml version="1.0" standalone="no"?>
<!DOCTYPE svg PUBLIC "-//W3C//DTD SVG 1.1//EN" "http://www.w3.org/Graphics/SVG/1.1/DTD/svg11.dtd" >
<svg xmlns="http://www.w3.org/2000/svg" xmlns:xlink="http://www.w3.org/1999/xlink" version="1.1">
<metadata></metadata>
<defs>
<font id="pf_agora_sans_proxthin" horiz-adv-x="1024" >
<font-face units-per-em="2048" ascent="1536" descent="-512" />
<missing-glyph horiz-adv-x="522" />
<glyph unicode="&#xfb01;" horiz-adv-x="970" d="M66 948v33l141 20l2 183q0 88 27.5 144t72.5 89t103.5 45.5t122.5 12.5q63 0 128.5 -7.5t118.5 -17.5l-8 -43q-57 10 -117.5 15t-113.5 5q-78 0 -132.5 -11t-89 -42t-51 -84t-16.5 -135v-160h584v-995h-50l-2 948h-532v-948h-47v948h-141z" />
<glyph unicode="&#xfb02;" horiz-adv-x="970" d="M70 948v33l143 20v183q0 88 27.5 144t72.5 89t103.5 45.5t122.5 12.5q61 0 130.5 -7.5t123.5 -17.5l45 12l-2 -1462h-48v1407q-57 10 -122.5 15t-118.5 5q-78 0 -132.5 -11t-89 -42t-51 -84t-16.5 -135v-160h332v-47h-332l-2 -948h-45v948h-141z" />
<glyph unicode="&#xfb03;" horiz-adv-x="1531" d="M72 948v33l139 18v144q0 88 27.5 148.5t75.5 97t114 53t143 16.5q63 0 133 -9t144 -34q47 49 114.5 67.5t143.5 18.5q63 0 128.5 -7t119.5 -17l-8 -43q-57 10 -118 15t-114 5q-78 0 -132 -11t-89 -42t-51.5 -84t-16.5 -135v-187h574v-995h-49v948h-525v-948h-47v948h-520 l-2 -948h-49l2 948h-137zM258 995h520l2 215q0 100 37 162q-68 23 -131 31t-100 8q-96 0 -160 -17.5t-100.5 -55.5t-52 -97t-15.5 -141v-105z" />
<glyph unicode="&#xfb04;" horiz-adv-x="1538" d="M72 948v33l139 18v144q0 88 27.5 148.5t75.5 97t114 53t143 16.5q63 0 133 -9t144 -34q47 49 114.5 67.5t143.5 18.5q61 0 131 -7t123 -17l45 12v-1489h-49v1434q-57 10 -123 15t-119 5q-78 0 -132 -11t-89 -42t-51.5 -84t-16.5 -135v-187h334v-47h-334v-948h-47v948 h-520l-2 -948h-49l2 948h-137zM258 995h520v215q0 96 39 162q-68 23 -131 31t-100 8q-96 0 -160 -17.5t-100.5 -55.5t-52 -97t-15.5 -141v-105z" />
<glyph horiz-adv-x="0" />
<glyph horiz-adv-x="682" />
<glyph unicode=" "  horiz-adv-x="522" />
<glyph unicode="&#x09;" horiz-adv-x="522" />
<glyph unicode="&#xa0;" horiz-adv-x="522" />
<glyph unicode="!" horiz-adv-x="378" d="M139 47q0 27 19.5 44.5t44.5 17.5t43 -17.5t18 -44.5q0 -29 -18.5 -48t-40.5 -19q-25 0 -45.5 19t-20.5 48zM174 760v653h51v-653l-10 -436h-27z" />
<glyph unicode="&#x22;" horiz-adv-x="364" d="M78 1397h63l-16 -361h-27zM236 1397h61l-18 -361h-29z" />
<glyph unicode="#" d="M88 428l10 37h146l88 418h-154l10 37h152q16 84 36.5 177t37.5 177h41l-76 -354h375q16 84 37.5 177t37.5 177h43l-75 -354h170l-11 -37h-168l-88 -418h177l-11 -37h-174l-90 -428h-41l90 428h-375l-90 -428h-41l91 428h-148zM285 465h372q20 98 45 208.5t46 209.5h-377z " />
<glyph unicode="$" d="M113 102l24 48q90 -47 154.5 -65.5t124.5 -27.5v656q-61 23 -112.5 49t-89.5 62t-59.5 85t-21.5 117q0 70 21.5 125t59.5 96t90 67.5t112 39.5v133h43v-1645h-43v164q-84 8 -165 35t-138 61zM184 1036q0 -59 17.5 -101t49.5 -73t74 -53.5t91 -40.5v535q-49 -12 -91 -35 t-73 -54.5t-49.5 -76t-18.5 -101.5zM532 -158v1645h43v-127q61 -4 127 -21.5t119 -48.5l-22 -47q-66 33 -118 46.5t-106 19.5v-594q63 -29 124 -57.5t108 -68.5t74.5 -95.5t27.5 -135.5t-25.5 -139t-70.5 -102t-106.5 -68.5t-131.5 -36.5v-170h-43zM575 61q133 23 208 96 t75 214q0 57 -21.5 100t-59.5 78t-90 61.5t-112 48.5v-598z" />
<glyph unicode="%" horiz-adv-x="1523" d="M53 942q0 63 10.5 137t44 137.5t94 105.5t163.5 42q104 0 162.5 -44t88 -108.5t36.5 -137.5t7 -130q0 -68 -13 -140.5t-47 -131t-92 -96t-147 -37.5q-102 0 -162.5 35.5t-93 93t-42 130t-9.5 144.5zM102 938q0 -74 10.5 -138.5t38 -112.5t79 -76.5t135.5 -28.5 q76 0 124 33.5t75.5 86t38.5 116t11 124.5q0 47 -6 112.5t-30.5 125t-74.5 100.5t-138 41t-140.5 -39t-79 -97.5t-35 -125t-8.5 -121.5zM446 -47l572 1472h45l-567 -1472h-50zM862 395q0 63 10.5 137t44 137.5t94 105.5t163.5 42q104 0 162.5 -44t88 -108.5t36.5 -137.5 t7 -130q0 -68 -13 -140.5t-47 -130.5t-92.5 -96t-146.5 -38q-102 0 -162.5 35.5t-93 93t-42 130.5t-9.5 144zM911 391q0 -74 10.5 -138.5t38 -112.5t79 -76.5t135.5 -28.5q76 0 124 33.5t75.5 86t38.5 116t11 124.5q0 47 -6 112.5t-30.5 125t-74.5 100.5t-138 41t-140.5 -39 t-79 -97t-35 -125t-8.5 -122z" />
<glyph unicode="&#x26;" horiz-adv-x="1396" d="M51 358q0 143 96.5 249t266.5 202q-63 84 -93 166t-30 127q0 119 68.5 194.5t185.5 75.5q119 0 182.5 -67.5t63.5 -171.5q0 -92 -76 -180.5t-232 -168.5q100 -154 210 -294t241 -275q55 51 102 111.5t84 133t61.5 159t30.5 190.5h43q-6 -106 -30.5 -197.5t-62.5 -169 t-88 -142t-105 -116.5q72 -72 161 -133t160 -96l-24 -41q-33 14 -75 40t-87 58.5t-91 69.5t-85 76q-106 -86 -230.5 -131t-236.5 -45q-86 0 -161 23.5t-130 69.5t-87 116.5t-32 166.5zM98 360q0 -86 29 -148t77 -103t111.5 -61.5t133.5 -20.5q104 0 211.5 31.5t236.5 127.5 q-135 141 -247.5 284.5t-211.5 295.5q-74 -41 -136 -84t-107 -92t-71 -105.5t-26 -124.5zM346 1112q0 -66 28.5 -134.5t86.5 -152.5q57 27 108.5 62t89 74.5t59 82.5t21.5 86q0 86 -53 138.5t-151 52.5q-53 0 -90 -21.5t-58.5 -53.5t-31 -67.5t-9.5 -66.5z" />
<glyph unicode="'" horiz-adv-x="268" d="M102 1397h64l-16 -361h-27z" />
<glyph unicode="(" horiz-adv-x="518" d="M121 590q0 176 36 322.5t82 258t91 185.5t65 104l21 -14q-20 -33 -60.5 -105.5t-79 -182t-67.5 -252t-29 -316.5q0 -197 29 -351.5t67.5 -270t77.5 -192.5t62 -116l-21 -12q-18 29 -63 103.5t-92 192t-83 279.5t-36 367z" />
<glyph unicode=")" horiz-adv-x="518" d="M104 -340q20 39 60.5 116t79.5 192.5t67.5 270t28.5 351.5q0 174 -28.5 316.5t-67.5 252t-79 182t-61 105.5l21 14q20 -31 65.5 -104.5t91.5 -185t81.5 -258t35.5 -322.5q0 -205 -35.5 -367t-83 -279.5t-92.5 -192.5t-63 -103z" />
<glyph unicode="*" horiz-adv-x="657" d="M74 1171q0 18 5 39t17 35l232 -100l-27 248q16 6 37.5 7t38.5 -7l-29 -248l230 96q25 -35 20 -72l-246 -45l166 -186q-10 -16 -27.5 -27.5t-33.5 -15.5l-123 217l-115 -219q-18 4 -35.5 15.5t-27.5 27.5l163 188z" />
<glyph unicode="+" d="M143 580v51h342v336h54v-336h340v-51h-340v-349h-54v349h-342z" />
<glyph unicode="," horiz-adv-x="239" d="M61 47q0 25 14.5 42t39.5 17q29 0 46 -18t17 -57q0 -23 -7 -53.5t-19.5 -63.5t-31 -62.5t-42.5 -50.5l-17 17q31 43 42.5 93t11.5 85q-23 0 -38.5 14.5t-15.5 36.5z" />
<glyph unicode="-" horiz-adv-x="655" d="M102 485v56h451v-56h-451z" />
<glyph unicode="." horiz-adv-x="284" d="M86 55q0 23 17.5 39.5t39.5 16.5q23 0 39.5 -16.5t16.5 -39.5t-16.5 -40t-39.5 -17t-40 17t-17 40z" />
<glyph unicode="/" horiz-adv-x="628" d="M14 -51l533 1478h49l-528 -1478h-54z" />
<glyph unicode="0" d="M51 662q0 106 16.5 231t65.5 232.5t142.5 179t246.5 71.5q104 0 179 -34.5t124 -92t79 -131.5t44.5 -152.5t18.5 -156.5t4 -141q0 -115 -20.5 -236t-72 -220t-138.5 -162.5t-222 -63.5q-154 0 -246 60t-141 156.5t-64.5 217.5t-15.5 242zM102 657q0 -129 16.5 -242.5 t61.5 -198.5t127 -134t215 -49q121 0 199 58.5t122 149.5t61.5 203t17.5 218q0 55 -3.5 126.5t-16.5 145.5t-38.5 144.5t-69.5 126t-111 89t-161 33.5t-162.5 -31.5t-114.5 -85t-75 -123t-43 -143.5t-19.5 -148.5t-5.5 -138.5z" />
<glyph unicode="1" d="M219 1241v39l313 74h60v-1354h-49v1286z" />
<glyph unicode="2" d="M53 0v49l164 156q109 104 211 208.5t181 208t126 203t47 193.5q0 80 -24.5 136t-67.5 92t-100.5 52.5t-120.5 16.5q-90 0 -183 -31t-171 -86l-27 45q86 59 186.5 92t198.5 33q74 0 140.5 -19.5t116.5 -61.5t80 -106.5t30 -154.5q0 -109 -54.5 -220.5t-136.5 -219 t-179 -205.5t-183 -182l-156 -152h758v-47h-836z" />
<glyph unicode="3" d="M68 49l18 43q113 -41 205 -50t149 -9q86 0 161 22.5t130 69.5t87 118.5t32 172.5q0 156 -111.5 240.5t-308.5 84.5q-41 0 -73.5 -2t-65.5 -8l-25 41l516 533h-661v49h731l10 -41l-508 -520h90q88 0 172 -21.5t147.5 -67t102.5 -118t39 -172.5q0 -104 -35.5 -185.5 t-97 -135.5t-143.5 -81.5t-174 -27.5q-119 0 -211 15t-176 50z" />
<glyph unicode="4" d="M39 399v56q172 229 344 450t342 449h55v-905h205v-50h-205l2 -399h-53v399h-690zM94 449h635v831z" />
<glyph unicode="5" d="M94 49l21 43q98 -35 183 -48t144 -13q201 0 315.5 92t114.5 293q0 88 -29.5 154.5t-80.5 111.5t-121 66.5t-152 21.5q-61 0 -130.5 -17.5t-129.5 -45.5l-43 26l31 621h653v-49h-608l-29 -545q14 4 25 10q10 4 16.5 7t8.5 3q31 10 88 24.5t145 14.5q70 0 142.5 -21.5 t132 -68.5t98.5 -124t39 -189q0 -111 -35 -193t-96.5 -136t-143.5 -79.5t-176 -25.5q-117 0 -207 16t-176 51z" />
<glyph unicode="6" d="M109 621q0 168 31.5 306t95 237.5t154.5 154.5t212 55q94 0 160.5 -18.5t120.5 -40.5l-21 -43q-82 33 -147.5 43t-116.5 10q-88 0 -153.5 -34t-112.5 -89t-79 -122.5t-51.5 -135t-27.5 -128t-10 -99.5l4 -6q68 47 171 79.5t224 32.5q78 0 148.5 -21.5t125 -70.5t86 -127 t31.5 -190q0 -199 -112.5 -313.5t-304.5 -114.5q-131 0 -214 51t-131.5 137t-65.5 202t-17 245zM164 584q0 -76 11 -171.5t49 -180.5t113 -142t204 -57q84 0 151.5 27.5t114.5 76.5t71.5 116.5t24.5 149.5t-17.5 150t-58.5 117t-106.5 75.5t-161.5 26.5q-90 0 -161.5 -19.5 t-123 -42t-79 -44t-31.5 -23.5v-59z" />
<glyph unicode="7" d="M111 1305v49h768v-54l-580 -1300h-55l585 1305h-718z" />
<glyph unicode="8" d="M68 315q0 133 72.5 255t215.5 210q-104 53 -157.5 121t-53.5 158q0 61 26 117.5t74 101.5t117.5 71.5t155.5 26.5q66 0 133.5 -17.5t122.5 -54t90 -95t35 -140.5q0 -86 -53 -184.5t-178 -184.5q125 -61 190.5 -144t65.5 -204q0 -68 -26 -133t-78 -117.5t-132 -84 t-188 -31.5q-117 0 -200 29.5t-134 77.5t-74.5 106.5t-23.5 115.5zM119 322q0 -49 18.5 -100.5t63.5 -93.5t119.5 -68.5t185.5 -26.5q98 0 166.5 29.5t113.5 74.5t65.5 100.5t20.5 106.5q0 98 -38.5 160.5t-103 106.5t-149.5 77t-180 70q-145 -88 -213.5 -204t-68.5 -232z M197 1057q0 -70 41 -122t103 -91t137 -69t145 -54q129 92 177 181t48 157q0 45 -16.5 93t-56.5 87t-104.5 64.5t-158.5 25.5q-90 0 -150.5 -29.5t-97.5 -71.5t-52 -89t-15 -82z" />
<glyph unicode="9" d="M68 946q0 199 112.5 313.5t304.5 114.5q131 0 214 -51t130.5 -137t65.5 -202t18 -245q0 -168 -31.5 -306t-95 -237.5t-155.5 -153.5t-211 -54q-94 0 -172 17.5t-131 39.5l20 43q82 -33 159 -43t128 -10q88 0 153.5 33.5t112.5 89t79 123t51.5 135t27.5 128t10 99.5l-4 6 q-68 -47 -171 -79.5t-224 -32.5q-78 0 -148.5 21.5t-125 70.5t-86 127t-31.5 190zM119 956q0 -82 17.5 -149.5t58.5 -116.5t106.5 -75.5t161.5 -26.5q90 0 161.5 19.5t123 42t79 43t31.5 24.5v59q0 76 -11 171t-49 180t-113 142.5t-204 57.5q-84 0 -151.5 -27.5 t-114.5 -76.5t-71.5 -117t-24.5 -150z" />
<glyph unicode=":" horiz-adv-x="284" d="M86 55q0 23 17.5 39.5t39.5 16.5q23 0 39.5 -16.5t16.5 -39.5t-16.5 -40t-39.5 -17t-40 17t-17 40zM86 684q0 23 17.5 39t39.5 16q23 0 39.5 -16t16.5 -39t-16.5 -40t-39.5 -17t-40 17t-17 40z" />
<glyph unicode=";" horiz-adv-x="284" d="M86 47q0 25 14.5 42t38.5 17q29 0 46.5 -18t17.5 -57q0 -23 -7.5 -53.5t-19.5 -63.5t-30.5 -62.5t-43.5 -50.5l-16 17q31 43 42 93t11 85q-23 0 -38 14.5t-15 36.5zM86 684q0 23 17.5 39t39.5 16q23 0 39.5 -16t16.5 -39t-16.5 -40t-39.5 -17t-40 17t-17 40z" />
<glyph unicode="&#x3c;" d="M147 575v60l730 381v-58l-687 -352l687 -354v-59z" />
<glyph unicode="=" d="M143 449v49h736v-49h-736zM143 731v51h736v-51h-736z" />
<glyph unicode="&#x3e;" d="M147 193v59l687 354l-687 352v58l730 -381v-60z" />
<glyph unicode="?" horiz-adv-x="825" d="M90 1378q88 31 175 44.5t157 13.5q178 0 265 -66.5t87 -183.5q0 -47 -16.5 -88t-42 -78t-60 -69.5t-71.5 -61.5q-78 -59 -131.5 -109.5t-87 -95.5t-49 -88t-15.5 -92q0 -31 4 -71t14 -81l-47 -12q-12 59 -16 102t-4 72q0 92 62.5 183t205.5 202q90 70 144.5 134.5 t54.5 148.5q0 57 -22.5 97t-60.5 64.5t-90 35t-114 10.5q-63 0 -143 -12.5t-185 -43.5zM276 49q0 25 18.5 42.5t43.5 17.5t43 -17.5t18 -42.5q0 -29 -18.5 -46t-40.5 -17q-25 0 -44.5 17t-19.5 46z" />
<glyph unicode="@" horiz-adv-x="1734" d="M152 680q0 156 61 287t166.5 226t243.5 148.5t292 53.5q162 0 290 -45t217 -129t137.5 -204t48.5 -267q0 -109 -30 -188t-75 -130t-99 -74.5t-104 -23.5q-31 0 -63.5 4t-62 16.5t-53 35t-38.5 56.5q-49 -45 -123.5 -80.5t-164.5 -35.5q-63 0 -103.5 21.5t-64 53 t-31.5 69.5t-8 71q0 59 20.5 99t56 64.5t84 37t103.5 16.5l219 16v84q0 117 -41 161t-143 44q-106 0 -238 -47l-14 37q57 29 128 44t140 15q106 0 159.5 -53t53.5 -168v-354q0 -78 46 -119t130 -41q45 0 92.5 19.5t86 63.5t63.5 114.5t25 171.5q0 147 -46.5 259.5 t-131.5 188.5t-203.5 115t-262.5 39q-145 0 -275 -51.5t-228.5 -141.5t-155.5 -212t-57 -265q0 -145 50 -268t138 -212t208 -139.5t259 -50.5q59 0 113.5 7.5t119.5 27.5l13 -41q-47 -14 -109.5 -26.5t-126.5 -12.5q-154 0 -284.5 53.5t-226 148.5t-148.5 225t-53 286z M633 547q0 -74 40 -123t128 -49q59 0 132 26.5t138 85.5v248l-250 -18q-80 -4 -134 -49t-54 -121z" />
<glyph unicode="A" horiz-adv-x="1052" d="M41 0l448 1397h74l449 -1397h-54l-131 403h-604l-127 -403h-55zM240 453h571l-190 594l-93 292h-6l-92 -292z" />
<glyph unicode="B" horiz-adv-x="1132" d="M164 0v1397h420q98 0 171.5 -25.5t122 -72t72 -109t23.5 -135.5q0 -37 -8.5 -82t-33 -89t-67.5 -84t-110 -69l2 -4q74 -23 125 -62.5t81.5 -90t44 -104.5t13.5 -103q0 -84 -27.5 -152t-76 -115t-114 -73.5t-140.5 -26.5h-498zM219 49h424q86 0 147.5 26.5t99.5 73 t56.5 104.5t18.5 124q0 61 -25 119.5t-69 103.5t-103 72.5t-129 27.5h-420v-651zM219 752h387q68 0 125 21.5t98 60t65 93t24 120.5q0 63 -19.5 118.5t-60.5 96.5t-104.5 63.5t-153.5 22.5h-361v-596z" />
<glyph unicode="C" horiz-adv-x="1103" d="M123 688q0 76 9 159t32.5 164t62.5 154.5t100.5 130t145.5 89t197 32.5q109 0 198.5 -15.5t143.5 -35.5l-17 -47q-78 23 -162.5 36t-158.5 13q-133 0 -226.5 -49t-154 -139t-88 -216t-27.5 -280q0 -119 16.5 -235.5t67.5 -209t148.5 -148.5t259.5 -56q27 0 69.5 3t91 8 t97.5 13.5t90 20.5l14 -41q-33 -12 -79 -21.5t-96 -16.5t-100 -11t-93 -4q-147 0 -251 49t-168.5 139t-93 220t-28.5 294z" />
<glyph unicode="D" horiz-adv-x="1218" d="M164 0v1397h397q160 0 263.5 -56.5t164 -151.5t84 -221.5t23.5 -265.5q0 -145 -26 -273t-89 -223t-171 -150.5t-271 -55.5h-375zM217 51h309q29 0 79 2t107.5 19.5t116 54.5t106.5 107.5t77.5 180t29.5 269.5q0 164 -27.5 277.5t-71.5 187.5t-99.5 114t-110.5 59 t-105 22.5t-83 3.5h-328v-1297z" />
<glyph unicode="E" horiz-adv-x="1003" d="M164 0v1397h743v-49h-690v-582h604v-47l-604 -2v-668h725v-49h-778z" />
<glyph unicode="F" horiz-adv-x="946" d="M164 0v1397h741v-49h-688v-580h604v-49l-604 -2v-717h-53z" />
<glyph unicode="G" horiz-adv-x="1193" d="M123 688q0 113 26.5 241t91 236.5t175 180t280.5 71.5q109 0 203 -15.5t148 -35.5l-11 -45q-82 23 -172 35t-164 12q-133 0 -230 -49t-162.5 -139t-97.5 -216t-32 -280q0 -119 17.5 -234.5t70.5 -207.5t153.5 -148.5t266.5 -56.5q31 0 71 3t83 8t84 13.5t71 20.5v610h56 v-653q-94 -29 -190.5 -41t-190.5 -12q-147 0 -252 49t-170.5 139t-95 220t-29.5 294z" />
<glyph unicode="H" horiz-adv-x="1210" d="M164 0v1397h55v-633h774l-2 633h56v-1397h-54v715h-774v-715h-55z" />
<glyph unicode="I" horiz-adv-x="421" d="M184 0v1397h54v-1397h-54z" />
<glyph unicode="J" horiz-adv-x="514" d="M-80 -322q86 51 149.5 101.5t105.5 111t61.5 137t19.5 179.5v1190h51l2 -1186q0 -117 -24.5 -205t-71.5 -154.5t-114.5 -118.5t-153.5 -100z" />
<glyph unicode="K" horiz-adv-x="1050" d="M164 0v1397h55v-723l713 723h76l-562 -563l564 -834h-64l-536 793l-191 -191v-602h-55z" />
<glyph unicode="L" horiz-adv-x="1071" d="M217 0v1397h53l2 -1348h758v-49h-813z" />
<glyph unicode="M" horiz-adv-x="1554" d="M164 0v1397h59l457 -1008l96 -219h6l99 221l454 1006h56v-1397h-52l-2 1262h-8l-84 -189l-434 -956h-63l-453 991l-72 162h-6v-1270h-53z" />
<glyph unicode="N" horiz-adv-x="1284" d="M164 0v1397h59l727 -1125l107 -170h8v1295h55l-2 -1397h-53l-700 1081l-140 219h-6v-1300h-55z" />
<glyph unicode="O" horiz-adv-x="1327" d="M123 684q0 141 26.5 274.5t91 234.5t171 162.5t266.5 61.5q162 0 264 -61.5t160.5 -163.5t80 -233.5t21.5 -268.5q0 -150 -32.5 -277.5t-99 -222t-165 -148.5t-229.5 -56q-154 0 -260.5 48t-172 138t-94 219t-28.5 293zM178 680q0 -317 115 -482t371 -165q123 0 215 51 t151.5 140t89 207t29.5 253q0 111 -16.5 232.5t-66.5 222t-143.5 166t-244.5 65.5q-152 0 -249 -59.5t-152.5 -156.5t-77 -221t-21.5 -253z" />
<glyph unicode="P" horiz-adv-x="999" d="M164 0v1397h401q80 0 150.5 -22.5t125 -70t86 -120t31.5 -170.5q0 -61 -15 -132t-57 -131.5t-116 -100.5t-190 -40h-361v-610h-55zM219 659h363q57 0 115.5 16.5t104.5 56.5t74.5 106.5t28.5 169.5q0 86 -25.5 149.5t-70.5 106.5t-105.5 63.5t-128.5 20.5h-356v-689z" />
<glyph unicode="Q" horiz-adv-x="1327" d="M123 684q0 141 26.5 274.5t91 234.5t171 162.5t266.5 61.5q162 0 264 -61.5t160.5 -163.5t80 -233.5t21.5 -268.5q0 -127 -24.5 -239.5t-71.5 -201.5t-118.5 -151.5t-166.5 -91.5l363 -92l-25 -68l-444 142q-10 0 -19.5 -1t-19.5 -1q-154 0 -260.5 48t-172 138t-94 219 t-28.5 293zM178 680q0 -317 115 -482t371 -165q123 0 215 51t151.5 140t89 207t29.5 253q0 111 -16.5 232.5t-66.5 222t-143.5 166t-244.5 65.5q-152 0 -249 -59.5t-152.5 -156.5t-77 -221t-21.5 -253z" />
<glyph unicode="R" horiz-adv-x="1091" d="M164 0v1397h391q111 0 188.5 -30t126 -79t70 -114.5t21.5 -137.5q0 -55 -13.5 -114.5t-43.5 -110.5t-79 -91t-120 -54q86 -29 130 -87.5t70 -144.5l125 -434h-55l-123 420q-23 70 -54.5 115t-72.5 70.5t-87 35.5t-95 10h-324v-651h-55zM219 700h352q166 0 250 85t84 245 q0 158 -96 238t-244 80h-346v-648z" />
<glyph unicode="S" horiz-adv-x="1052" d="M82 82l22 45q111 -53 205 -72.5t185 -19.5q199 0 310 77.5t111 254.5q0 78 -27.5 131t-76.5 90t-116.5 61.5t-147.5 46.5q-88 23 -167 49.5t-138.5 65.5t-94 96.5t-34.5 143.5q0 90 30.5 158.5t86 115.5t133.5 70.5t172 23.5q61 0 155 -10t187 -43l-17 -51 q-109 31 -185.5 42t-150.5 11q-76 0 -140.5 -19.5t-112.5 -59.5t-74.5 -99.5t-26.5 -140.5q0 -72 31.5 -120t84 -81t120 -54.5t141.5 -41.5q76 -20 151.5 -45t136 -67t98.5 -107.5t38 -167.5t-38 -175t-101.5 -118t-149.5 -65.5t-180 -20.5q-106 0 -220 23.5t-200 72.5z" />
<glyph unicode="T" horiz-adv-x="1026" d="M39 1348v49h946l2 -49h-446l-2 -1348h-52v1348h-448z" />
<glyph unicode="U" horiz-adv-x="1308" d="M164 489v908h51l2 -901q0 -229 108.5 -345t325.5 -116t329 116.5t112 344.5v901h53v-908q0 -111 -31 -203.5t-92 -159.5t-153.5 -103.5t-217.5 -36.5q-127 0 -219 34.5t-151.5 99t-88 159t-28.5 210.5z" />
<glyph unicode="V" horiz-adv-x="1015" d="M41 1397h55l330 -1082l78 -260h6l80 269l332 1073h53l-430 -1397h-74z" />
<glyph unicode="W" horiz-adv-x="1574" d="M41 1397h49l322 -1340h6l323 1340h54l364 -1340h6l320 1340h49l-336 -1397h-74l-352 1307h-8l-311 -1307h-74z" />
<glyph unicode="X" horiz-adv-x="1005" d="M41 0l432 721l-403 676h57l375 -627l375 627h55l-402 -676l435 -721h-60l-403 674l-404 -674h-57z" />
<glyph unicode="Y" horiz-adv-x="929" d="M31 1397h59l252 -475l113 -220h6l106 199l271 496h61l-414 -748v-649h-53v643z" />
<glyph unicode="Z" horiz-adv-x="948" d="M31 0v55l796 1293h-747v49h803v-56l-793 -1290h828v-51h-887z" />
<glyph unicode="[" horiz-adv-x="458" d="M129 -328v1753h252v-59h-195v-1636h195v-58h-252z" />
<glyph unicode="\" horiz-adv-x="628" d="M14 1427h49l533 -1478h-53z" />
<glyph unicode="]" horiz-adv-x="458" d="M86 -270h195v1636h-195v59h252v-1753h-252v58z" />
<glyph unicode="^" horiz-adv-x="847" d="M61 827l338 572h62l325 -572h-59l-301 523l-301 -523h-64z" />
<glyph unicode="_" d="M0 -188h1024v-43h-1024v43z" />
<glyph unicode="`" horiz-adv-x="952" d="M274 1403l54 45l204 -293l-30 -20z" />
<glyph unicode="a" horiz-adv-x="974" d="M82 258q0 72 25.5 124t70.5 86t105.5 51.5t128.5 21.5l311 14v104q0 80 -11.5 137.5t-39 94.5t-75.5 54.5t-122 17.5q-76 0 -156.5 -19.5t-154.5 -48.5l-17 39q86 35 173.5 53.5t164.5 18.5q143 0 215 -73t72 -245v-637h137l4 -33q-35 -14 -66.5 -19t-55.5 -5 q-39 0 -55.5 15.5t-16.5 56.5v57l-6 2q-68 -51 -124.5 -79t-100.5 -41t-77.5 -15t-58.5 -2q-80 0 -132 24.5t-83 64.5t-43 87t-12 94zM131 264q0 -117 62.5 -175t179.5 -58q82 0 168 41t182 114v326l-317 -16q-133 -6 -204 -68.5t-71 -163.5z" />
<glyph unicode="b" horiz-adv-x="956" d="M123 61v1389h47v-367v-85t-2 -89l4 -4q111 55 186.5 79t145.5 24q102 0 169.5 -40t107.5 -110t56.5 -165t16.5 -208q0 -104 -19.5 -195t-64.5 -157.5t-117.5 -105.5t-179.5 -39q-111 0 -194.5 20.5t-155.5 52.5zM170 92q82 -35 156.5 -47t140.5 -12q158 0 248 103.5 t90 344.5q0 137 -21.5 230.5t-59.5 150t-93 80t-123 23.5q-88 0 -177 -36t-161 -75v-762z" />
<glyph unicode="c" horiz-adv-x="882" d="M102 477q0 74 15.5 166t59.5 173t124 136.5t209 55.5q76 0 147.5 -13.5t124.5 -36.5l-18 -43q-78 29 -141.5 38.5t-108.5 9.5q-94 0 -162.5 -35t-112.5 -99.5t-64.5 -154.5t-20.5 -199q0 -88 15 -169t53 -142.5t102.5 -97t162.5 -35.5q86 0 156 18.5t154 52.5l14 -39 q-59 -33 -141 -55t-174 -22q-109 0 -183.5 36.5t-122 101t-68 155t-20.5 198.5z" />
<glyph unicode="d" horiz-adv-x="956" d="M102 475q0 113 20.5 210t65.5 168t117 112t174 41q61 0 138 -17.5t169 -68.5l2 530h46v-1450h-48v113l-4 2q-74 -57 -159.5 -92t-171.5 -35q-98 0 -165 36.5t-108 102.5t-58.5 155t-17.5 193zM154 471q0 -123 21.5 -207t62.5 -135t97 -73.5t128 -22.5q39 0 83 11t87 30.5 t83 45t70 56.5v688q-59 37 -140 65.5t-169 28.5q-68 0 -127 -25.5t-102 -82.5t-68.5 -150.5t-25.5 -228.5z" />
<glyph unicode="e" horiz-adv-x="946" d="M102 489q0 37 4.5 89.5t18.5 109.5t41 114.5t71 102.5t107.5 73t151.5 28q94 0 156.5 -30t102.5 -76t59.5 -101.5t28.5 -108.5t9 -97v-65v-32h-698q0 -92 13 -176t51 -147.5t102.5 -101.5t166.5 -38q92 0 162 18.5t154 59.5l18 -41q-80 -43 -155.5 -63.5t-169.5 -20.5 q-119 0 -196 40t-121 108.5t-60.5 160.5t-16.5 194zM156 541h645q0 92 -15.5 169.5t-51.5 133t-94 87.5t-146 32q-90 0 -151.5 -36t-100.5 -94.5t-58.5 -135t-27.5 -156.5z" />
<glyph unicode="f" horiz-adv-x="614" d="M76 948v33l141 20v195q0 147 71.5 209.5t200.5 62.5q35 0 72 -3t74 -11l-6 -41q-33 4 -69 8t-64 4q-119 0 -175.5 -50t-56.5 -173v-207h301v-47h-301l-2 -948h-45v948h-141z" />
<glyph unicode="g" horiz-adv-x="999" d="M92 -158q0 90 39 163t92 108q-68 6 -97.5 39.5t-29.5 85.5q0 45 18.5 72.5t47 44t63.5 23.5t66 7l2 2q-66 31 -114 104.5t-48 180.5q0 92 32 155.5t82 103.5t111.5 58.5t122.5 18.5q41 0 84 -4.5t86 -18.5h289v-47h-197l-2 -4q61 -41 89 -109.5t28 -146.5 q0 -156 -104.5 -245t-276.5 -89h-129q-41 0 -78 -3t-64.5 -14.5t-44 -31t-16.5 -51.5q0 -92 144 -92h286q184 0 261 -77t77 -200q0 -78 -33.5 -138.5t-92 -101.5t-136.5 -62.5t-166 -21.5q-113 0 -188.5 24t-120.5 63.5t-63.5 93t-18.5 110.5zM141 -145q0 -49 14.5 -96.5 t53.5 -82t106.5 -56t173.5 -21.5q78 0 147 18t119 53t78.5 86t28.5 117q0 39 -10 80t-41 75.5t-89 57.5t-155 23h-266q-80 -35 -120 -110t-40 -144zM180 672q0 -63 21.5 -114.5t59.5 -88.5t89 -57.5t113 -20.5q158 0 252 72t94 215q0 45 -15.5 95t-52 92t-98 70t-151.5 28 q-150 0 -231 -79t-81 -212z" />
<glyph unicode="h" horiz-adv-x="942" d="M123 0v1450h47v-281v-138t-2 -138l4 -4q111 57 212 88t173 31q96 0 149.5 -30t78 -74t29.5 -95t5 -96v-713h-49v686q0 61 -7 111.5t-29.5 87.5t-65.5 56.5t-115 19.5q-45 0 -95 -11.5t-100.5 -29t-98.5 -39t-89 -43.5v-838h-47z" />
<glyph unicode="i" horiz-adv-x="385" d="M143 1245q0 23 14.5 37t32.5 14q23 0 37.5 -14t14.5 -37q0 -20 -14.5 -34.5t-37.5 -14.5q-18 0 -32.5 14.5t-14.5 34.5zM168 0l2 995h47v-995h-49z" />
<glyph unicode="j" horiz-adv-x="399" d="M-55 -401q72 39 118 75.5t72.5 78.5t36.5 90t10 110l-2 1042h49v-1013q0 -80 -11 -141.5t-41 -110.5t-82 -90t-132 -78zM156 1245q0 23 14 37t33 14q23 0 37 -14t14 -37q0 -20 -14.5 -34.5t-36.5 -14.5q-18 0 -32.5 14.5t-14.5 34.5z" />
<glyph unicode="k" horiz-adv-x="815" d="M123 0v1450h47v-965l4 -2q43 41 86 86t90 88l350 338h64l-397 -385l59 -80l358 -530h-59l-393 580l-162 -158v-422h-47z" />
<glyph unicode="l" horiz-adv-x="358" d="M154 0v1450h51v-1450h-51z" />
<glyph unicode="m" horiz-adv-x="1556" d="M125 0v995h49q0 -25 -1 -49t-1 -49l6 -4q102 55 197.5 85t167.5 30q115 0 169 -38t72 -93q129 72 224.5 101.5t165.5 29.5q92 0 143 -25t77.5 -63.5t33 -85t6.5 -91.5v-743h-50v684q0 61 -4 112.5t-24.5 87.5t-63.5 56.5t-121 20.5q-45 0 -94 -12.5t-98 -31t-96 -41 t-86 -42.5q6 -47 6 -91v-743h-49v684q0 61 -4.5 112.5t-24.5 87.5t-63.5 56.5t-120.5 20.5q-45 0 -93.5 -11.5t-96.5 -29t-94 -40t-85 -42.5v-838h-47z" />
<glyph unicode="n" horiz-adv-x="942" d="M125 0v995h49q0 -25 -1 -49t-1 -49l6 -4q102 55 205.5 85t175.5 30q92 0 143.5 -25t78 -63.5t32.5 -85t6 -91.5v-743h-49v684q0 61 -4 112.5t-24.5 87.5t-63.5 56.5t-121 20.5q-45 0 -95 -11.5t-101.5 -29t-100.5 -40t-88 -42.5v-838h-47z" />
<glyph unicode="o" horiz-adv-x="976" d="M102 483q0 94 20.5 188.5t67 168t122 120t186.5 46.5q115 0 188.5 -46.5t115.5 -120t57 -165.5t15 -185q0 -90 -16 -179t-58 -161.5t-117 -117.5t-191 -45q-117 0 -192 42t-119 111.5t-61.5 158.5t-17.5 185zM154 481q0 -86 12 -167t49 -143t104.5 -100t178.5 -38 q102 0 165.5 42t99.5 106.5t49 144t13 157.5q0 76 -12 161t-47 155.5t-99.5 117t-168.5 46.5q-102 0 -169 -43t-106 -113t-54 -155t-15 -171z" />
<glyph unicode="p" horiz-adv-x="954" d="M123 -436v1431h45q0 -29 -1 -55.5t-1 -54.5l4 -4q74 57 161 92t173 35q98 0 164.5 -37t107.5 -102.5t58.5 -154.5t17.5 -194q0 -113 -20.5 -210t-65.5 -167.5t-116.5 -111.5t-174.5 -41q-61 0 -138 17.5t-169 68.5v-512h-45zM168 131q59 -37 140 -65.5t169 -28.5 q68 0 127.5 25.5t102.5 83t68.5 150.5t25.5 228q0 123 -21.5 207t-62.5 135.5t-98.5 74t-126.5 22.5q-39 0 -83 -11.5t-87 -31t-83 -45t-71 -56.5v-688z" />
<glyph unicode="q" horiz-adv-x="956" d="M102 508q0 104 19.5 195.5t64.5 160t118 107.5t179 39q111 0 195 -20.5t156 -53.5v-1372h-46l-2 268q0 63 1 124.5t1 125.5l-6 4q-109 -55 -185.5 -77.5t-143.5 -22.5q-102 0 -170 40t-108 109.5t-56.5 164.5t-16.5 208zM152 512q0 -137 21.5 -230.5t59 -149.5t93 -79.5 t123.5 -23.5q88 0 177 35.5t160 74.5v766q-82 35 -156.5 47.5t-140.5 12.5q-160 0 -248.5 -105.5t-88.5 -347.5z" />
<glyph unicode="r" horiz-adv-x="548" d="M143 0v995h54q0 -33 -1 -64.5t-1 -64.5h6q25 23 65.5 48.5t83.5 48t84 37t68 14.5q8 0 15 -4t7 -21q0 -8 -3 -21.5t-11 -23.5l-313 -104v-840h-54z" />
<glyph unicode="s" horiz-adv-x="831" d="M92 55l21 41q80 -43 150.5 -55t125.5 -12q63 0 118.5 13t96.5 41t64.5 69t23.5 98q0 49 -22.5 86t-60.5 64.5t-85 47t-96 35.5q-61 18 -117.5 41t-100.5 55.5t-70.5 74.5t-26.5 102q0 70 25.5 117t67.5 76.5t97.5 43t116.5 13.5q41 0 114.5 -9.5t139.5 -40.5l-17 -43 q-70 29 -131 39.5t-108 10.5q-111 0 -183.5 -49.5t-72.5 -159.5q0 -45 24.5 -80t61.5 -60.5t81 -44t83 -30.5q61 -20 119.5 -42t104.5 -53.5t74.5 -78t28.5 -113.5q0 -72 -28.5 -122t-76.5 -82t-109.5 -47t-127.5 -15q-86 0 -164.5 16t-140.5 53z" />
<glyph unicode="t" horiz-adv-x="624" d="M70 948v31l139 22l16 175l33 4v-185h287v-47h-287v-741q0 -74 30.5 -121t129.5 -47q78 0 192 35l13 -35q-47 -20 -101.5 -32.5t-107.5 -12.5q-39 0 -76 8t-64.5 30.5t-45 60.5t-17.5 97v758h-141z" />
<glyph unicode="u" horiz-adv-x="925" d="M125 274v721h47v-696q0 -63 6 -114.5t27.5 -87.5t63.5 -55t116 -19q37 0 82 10t94 30.5t99.5 51t95.5 71.5l-2 809h49v-995h-47v131l-6 2q-63 -53 -120 -83t-104 -46t-82.5 -20t-56.5 -4q-102 0 -155.5 29.5t-77 73.5t-26.5 95t-3 96z" />
<glyph unicode="v" horiz-adv-x="763" d="M31 995h51q55 -176 112.5 -358t116.5 -373l64 -211h6l65 211q53 166 112.5 345t121.5 386h53q-86 -268 -166 -515t-157 -480h-66q-74 236 -149.5 479.5t-163.5 515.5z" />
<glyph unicode="w" horiz-adv-x="1316" d="M31 995h49l176 -649l80 -299h6l92 320l184 628h54l225 -702l78 -246h6l70 260l186 688h49l-272 -995h-70l-219 688l-76 238h-4l-59 -205l-213 -721h-70z" />
<glyph unicode="x" horiz-adv-x="765" d="M20 0l330 530l-291 465h58l262 -424l262 424h53l-286 -463l337 -532h-59l-307 492l-303 -492h-56z" />
<glyph unicode="y" horiz-adv-x="821" d="M-33 -422l10 45q66 -12 100 -17t68 -5q27 0 49.5 1t44 15t42 47t41.5 94l77 242h-28l-342 995h49l205 -596l123 -362h8l114 364l189 594h51l-395 -1239q-31 -94 -74 -149.5t-135 -55.5q-35 0 -84 5.5t-113 21.5z" />
<glyph unicode="z" horiz-adv-x="796" d="M35 0v49l641 895l-4 4h-592v47h649v-57l-635 -889l2 -4l654 2v-47h-715z" />
<glyph unicode="{" horiz-adv-x="458" d="M66 592v43q49 8 76.5 33.5t42 59.5t18.5 73t4 78v385q0 66 31.5 114.5t101.5 48.5h61v-57h-45q-51 0 -71.5 -29.5t-20.5 -95.5v-371q0 -39 -5 -78.5t-17.5 -75.5t-34 -63.5t-55.5 -40.5q76 -39 94 -103t18 -157v-506q0 -51 12.5 -87.5t69.5 -36.5h55v-54h-73 q-66 0 -93.5 43t-27.5 109v528q0 33 -3 72t-17.5 72.5t-43 59.5t-77.5 36z" />
<glyph unicode="|" horiz-adv-x="401" d="M174 -274v1697h51v-1697h-51z" />
<glyph unicode="}" horiz-adv-x="458" d="M66 -274h55q57 0 69.5 36.5t12.5 87.5v506q0 92 18.5 157t93.5 103q-35 12 -56 40t-33.5 64t-17.5 76t-5 78v371q0 66 -20.5 95.5t-71.5 29.5h-45v57h61q70 0 101.5 -49t31.5 -114v-385q0 -39 4 -78t18.5 -73t42 -59.5t76.5 -33.5v-43q-49 -10 -77.5 -36t-43 -59.5 t-17.5 -72.5t-3 -72v-528q0 -66 -27.5 -109t-93.5 -43h-73v54z" />
<glyph unicode="~" d="M137 516q31 61 56.5 87t66.5 26q45 0 118 -11.5t148.5 -24.5t144 -24.5t107.5 -11.5l86 74l23 -15q-29 -61 -52.5 -83.5t-60.5 -22.5q-53 0 -123.5 11t-143.5 24.5t-141.5 25t-113.5 11.5l-88 -82z" />
<glyph unicode="&#xa1;" horiz-adv-x="378" d="M139 942q0 29 20.5 48.5t45.5 19.5q23 0 41 -19.5t18 -48.5q0 -27 -18.5 -44t-42.5 -17q-25 0 -44.5 17t-19.5 44zM174 229l14 437h27l10 -437v-653h-51v653z" />
<glyph unicode="&#xa2;" d="M162 477q0 70 13 158t52 167t110 136t185 68v137h47v-135q76 0 147.5 -13.5t125.5 -36.5l-19 -43q-78 29 -142.5 38.5t-111.5 9.5v-932q78 2 142.5 19.5t144.5 51.5l14 -39q-57 -31 -135 -52t-166 -25v-170h-47v172q-98 6 -166.5 44t-111.5 102.5t-62.5 151.5t-19.5 191z M213 475q0 -86 14.5 -165t49 -139t95 -98t150.5 -42v927q-162 -18 -235.5 -149t-73.5 -334z" />
<glyph unicode="&#xa3;" d="M86 0v51q49 20 81 63.5t51.5 98.5t28.5 116.5t11 114.5l10 226h-147v47h151q2 61 5.5 131t5.5 131q2 76 19 145.5t57 122.5t106.5 84t169.5 31q78 0 162 -13.5t139 -35.5l-16 -45q-78 27 -144.5 37t-138.5 10q-92 0 -150.5 -26.5t-91.5 -73t-46 -109t-17 -133.5l-10 -256 h426v-47h-429l-8 -224q-2 -53 -11 -110t-25.5 -111.5t-43 -99.5t-63.5 -76h752v-49h-834z" />
<glyph unicode="&#xa4;" d="M98 256l133 127q-53 63 -71.5 125.5t-18.5 116.5q0 61 19.5 125.5t70.5 119.5l-131 131l37 35l131 -127q53 41 114.5 64.5t131.5 23.5q66 0 126 -23.5t116 -64.5l131 127l37 -37l-138 -129q53 -61 74 -119.5t21 -121.5q0 -129 -93 -246l138 -123l-39 -41l-133 129 q-59 -53 -120 -71.5t-120 -18.5q-61 0 -121.5 18.5t-122.5 71.5l-131 -131zM188 627q0 -68 26 -126.5t70 -102.5t103 -69.5t125 -25.5q63 0 121.5 25.5t101.5 69.5t68.5 102.5t25.5 126.5q0 66 -25.5 124t-68.5 101t-100 68.5t-123 25.5t-125 -25.5t-103 -68.5t-70 -101 t-26 -124z" />
<glyph unicode="&#xa5;" d="M96 1354h58l225 -447l129 -245h6l129 245l238 447h57l-395 -733h344v-48h-750v48h340zM137 442v43h750v-43h-352v-442h-50l-2 442h-346z" />
<glyph unicode="&#xa6;" horiz-adv-x="401" d="M174 -274v798h51v-798h-51zM174 731v692h51v-692h-51z" />
<glyph unicode="&#xa7;" horiz-adv-x="890" d="M127 676q0 72 39 144.5t129 137.5q-78 53 -108.5 107.5t-30.5 116.5q0 135 92 206.5t237 71.5q49 0 85 -3t67 -9t56.5 -13.5t54.5 -15.5l-17 -47q-66 20 -119 30.5t-127 10.5q-49 0 -98 -12t-90 -40t-66.5 -74t-25.5 -111q0 -49 24.5 -86t64.5 -68t91 -57.5t102 -51.5 q90 -45 145.5 -83.5t86.5 -75.5t42 -74t11 -76q0 -59 -39 -125.5t-106 -132.5q55 -35 86.5 -71.5t49 -70.5t23 -61.5t5.5 -44.5q0 -80 -32 -137t-83 -94t-117.5 -54.5t-134.5 -17.5q-92 0 -156.5 14.5t-124.5 32.5l17 45q84 -27 143 -37t127 -10q57 0 113.5 15.5t100.5 46 t70.5 78t26.5 110.5q0 80 -45 134.5t-113.5 93t-148.5 70.5t-148.5 70t-113.5 89t-45 129zM172 686q0 -63 39 -107t99.5 -79t132 -66t139.5 -65q78 68 109.5 130t31.5 111q0 39 -13.5 71t-44 62.5t-81.5 62.5t-127 71q-29 16 -64 30.5t-59 30.5q-76 -55 -119 -124t-43 -128z " />
<glyph unicode="&#xa8;" horiz-adv-x="954" d="M246 1245q0 23 14 37t35 14q23 0 37 -14t14 -37t-14.5 -37t-36.5 -14q-20 0 -34.5 14.5t-14.5 36.5zM518 1245q0 23 14.5 37t34.5 14q23 0 37 -14t14 -37t-14 -37t-37 -14q-20 0 -34.5 14.5t-14.5 36.5z" />
<glyph unicode="&#xa9;" horiz-adv-x="1677" d="M121 686q0 150 57.5 281t156.5 229t232 154.5t285 56.5q150 0 284 -56.5t234 -154.5t158.5 -229t58.5 -281q0 -152 -58.5 -284t-158.5 -230t-234 -154.5t-284 -56.5q-152 0 -285 56.5t-232 154.5t-156.5 230.5t-57.5 283.5zM164 686q0 -141 54 -265t147.5 -216 t219.5 -145.5t267 -53.5q143 0 268 53.5t218.5 145.5t146.5 216t53 265t-53 264t-146.5 215t-218.5 145.5t-268 53.5q-141 0 -267 -53.5t-219.5 -145.5t-147.5 -215t-54 -264zM451 670q0 76 18 169t64.5 174t127 135t207.5 54q82 0 143.5 -12t102.5 -27l-14 -47 q-61 25 -118.5 33t-111.5 8q-92 0 -161.5 -36t-115.5 -100.5t-68.5 -154.5t-22.5 -200q0 -90 14 -175t54 -150t113 -103.5t187 -38.5q43 0 113 7t131 27l12 -40q-47 -18 -120.5 -29.5t-141.5 -11.5q-219 0 -316 138t-97 380z" />
<glyph unicode="&#xaa;" horiz-adv-x="634" d="M39 721q0 94 66.5 140t164.5 50l205 9v59q0 100 -32.5 144t-129.5 44q-53 0 -109.5 -13t-109.5 -34l-14 39q63 23 125.5 36t116.5 13q102 0 152 -48t50 -165v-399h99l2 -35q-27 -10 -53.5 -14t-43.5 -4q-31 0 -44 11t-13 44v27q-92 -61 -150.5 -73.5t-89.5 -12.5 q-57 0 -95 16t-59.5 43t-29.5 59.5t-8 63.5zM86 725q0 -70 41 -105.5t117 -35.5q53 0 110.5 24.5t120.5 67.5v201l-209 -13q-86 -4 -133 -41t-47 -98z" />
<glyph unicode="&#xab;" horiz-adv-x="747" d="M141 334v63l275 287l26 -22l-237 -297l239 -295l-26 -25zM344 334v63l274 287l27 -22l-237 -297l239 -295l-26 -25z" />
<glyph unicode="&#xac;" d="M143 580v51h736v-400h-54v349h-682z" />
<glyph unicode="&#xad;" horiz-adv-x="655" d="M102 485v56h451v-56h-451z" />
<glyph unicode="&#xae;" horiz-adv-x="1150" d="M96 973q0 96 37 182t100.5 149.5t149.5 100.5t182 37t182.5 -37t151 -100.5t102 -149.5t37.5 -182q0 -100 -37.5 -185.5t-102 -146.5t-150.5 -96t-183 -35q-96 0 -182 34t-149.5 95t-100.5 146t-37 188zM137 973q0 -92 33 -169t90 -134.5t136 -89t169 -31.5 q88 0 167 30.5t138.5 87t93 134.5t33.5 172q0 88 -33.5 167t-93 138t-138.5 93t-167 34q-86 0 -163.5 -34t-136 -93t-93.5 -138t-35 -167zM412 680v592h174q76 0 128 -36t52 -122q0 -47 -24.5 -94t-100.5 -68l127 -272h-49l-125 270h-137v-270h-45zM457 989h135 q49 0 88 24.5t39 98.5q0 68 -38 94.5t-89 26.5h-135v-244z" />
<glyph unicode="&#xaf;" horiz-adv-x="954" d="M174 1229v53h586v-53h-586z" />
<glyph unicode="&#xb0;" horiz-adv-x="671" d="M96 1122q0 47 18.5 90t51.5 76t76 52.5t92 19.5t91 -19.5t72.5 -52.5t49 -76t18.5 -90q0 -49 -18.5 -91t-49 -72.5t-72.5 -49t-91 -18.5q-115 0 -176.5 66.5t-61.5 164.5zM141 1120q0 -37 15.5 -70.5t41 -59t60.5 -40t72 -14.5t70.5 14.5t59 40t42 59t16.5 70.5t-16.5 72 t-42 61.5t-59 43t-70.5 16.5t-72 -16.5t-60.5 -43t-41 -61.5t-15.5 -72z" />
<glyph unicode="&#xb1;" d="M133 41v53h756v-53h-756zM143 580v51h342v336h54v-336h340v-51h-340v-349h-54v349h-342z" />
<glyph unicode="&#xb2;" horiz-adv-x="665" d="M31 731v41l106 92q70 61 134.5 122t114.5 120t81 116.5t31 110.5q0 88 -57.5 127t-135.5 39q-57 0 -118.5 -19.5t-114.5 -54.5l-23 41q59 39 127 58.5t131 19.5q49 0 93 -11t78 -35.5t54.5 -63.5t20.5 -95q0 -66 -35 -132t-89 -128.5t-116.5 -122t-117.5 -108.5l-84 -72 h471v-45h-551z" />
<glyph unicode="&#xb3;" horiz-adv-x="665" d="M35 764l18 41q78 -27 137.5 -33t96.5 -6q53 0 100 12.5t82 39t54.5 67.5t19.5 98q0 86 -70 134t-192 48q-29 0 -49.5 -1t-43.5 -5l-22 31l317 303h-411v45h485l12 -35l-319 -295h39q57 0 112.5 -12t97.5 -40t67.5 -71t25.5 -104q0 -63 -23.5 -112.5t-63.5 -82t-94.5 -49 t-115.5 -16.5q-78 0 -139.5 10t-120.5 33z" />
<glyph unicode="&#xb4;" horiz-adv-x="952" d="M274 1155l205 293l53 -45l-227 -268z" />
<glyph unicode="&#xb5;" horiz-adv-x="925" d="M123 -434v1429h47v-721q0 -66 8 -112.5t33 -77.5t70 -46t118 -15q31 0 74 10t91 31.5t97.5 51t92.5 70.5v809h47v-995h-47v135l-2 2q-61 -53 -116.5 -83.5t-103 -47t-84 -21.5t-61.5 -5q-72 0 -123 13t-86 54l-8 -2v-479h-47z" />
<glyph unicode="&#xb6;" horiz-adv-x="917" d="M125 1100q0 66 24.5 124t66.5 102t99.5 69.5t122.5 25.5h305l2 -1757h-53v1710h-166v-1710h-53v1127h-35q-68 0 -125 24.5t-99 66.5t-65.5 98t-23.5 120z" />
<glyph unicode="&#xb7;" horiz-adv-x="303" d="M92 571q0 23 20.5 43.5t47.5 20.5q23 0 43 -20.5t20 -43.5q0 -27 -20.5 -47t-42.5 -20q-27 0 -47.5 20t-20.5 47z" />
<glyph unicode="&#xb8;" horiz-adv-x="1091" d="M465 -455q80 6 132 21.5t83 37t43 47t12 54.5q0 53 -51 77.5t-129 24.5q-10 0 -21.5 -1t-23.5 -1l-18 29l157 193l29 -23l-125 -158h35q92 0 152.5 -32.5t60.5 -104.5q0 -39 -19.5 -74.5t-60.5 -63.5t-103.5 -44t-150.5 -16z" />
<glyph unicode="&#xb9;" horiz-adv-x="665" d="M117 1487l227 51h49v-807h-49v750l-223 -33z" />
<glyph unicode="&#xba;" horiz-adv-x="645" d="M61 864q0 63 13.5 125t46.5 111t86 78.5t131 29.5q80 0 132 -29.5t81 -78.5t40 -109.5t11 -122.5q0 -59 -11 -117.5t-41 -106.5t-82 -77.5t-134 -29.5t-134.5 27.5t-83 73.5t-43 105.5t-12.5 120.5zM111 864q0 -53 8 -104t32.5 -90t68.5 -62.5t118 -23.5q68 0 109.5 25.5 t65.5 66.5t32 91t8 97q0 49 -8 102.5t-30.5 97.5t-64.5 73.5t-112 29.5q-68 0 -112 -27.5t-69.5 -70.5t-35.5 -97t-10 -108z" />
<glyph unicode="&#xbb;" horiz-adv-x="747" d="M125 70l240 295l-238 297l27 22l274 -287v-63l-276 -289zM328 70l239 295l-237 297l26 22l275 -287v-63l-277 -289z" />
<glyph unicode="&#xbc;" horiz-adv-x="1523" d="M209 1303l227 51h49v-807h-49v749l-223 -32zM428 -47l571 1472h45l-567 -1472h-49zM750 233v43q111 135 222 265.5t222 265.5h49v-531h131v-43h-131v-233h-53l2 233h-442zM811 276h381v457z" />
<glyph unicode="&#xbd;" horiz-adv-x="1523" d="M162 1303l227 51h49v-807h-49v749l-223 -32zM387 -47l571 1472h46l-568 -1472h-49zM864 0v41l107 92q70 61 134 121.5t114.5 120t81 117t30.5 110.5q0 88 -57 127t-135 39q-57 0 -119 -19.5t-115 -54.5l-22 41q59 39 126.5 58.5t131.5 19.5q49 0 93 -11t78 -36t54 -63.5 t20 -94.5q0 -66 -34.5 -132t-89 -128.5t-117 -122t-117.5 -108.5l-84 -72l471 2v-47h-551z" />
<glyph unicode="&#xbe;" horiz-adv-x="1523" d="M51 580l19 41q78 -27 137 -33t96 -6q53 0 100.5 12t82 38.5t54 67.5t19.5 99q0 86 -69.5 134t-192.5 48q-29 0 -49.5 -1t-42.5 -5l-23 31l318 303h-412v45h485l13 -35l-320 -295h39q57 0 112.5 -12.5t97.5 -40t67.5 -70.5t25.5 -104q0 -63 -23.5 -112.5t-63.5 -82.5 t-94 -49t-116 -16q-78 0 -139 10t-121 33zM465 -47l571 1472h45l-567 -1472h-49zM848 233v43q111 135 222.5 265.5t221.5 265.5h49v-531h132v-43h-132v-233h-53l2 233h-442zM909 276h381v457z" />
<glyph unicode="&#xbf;" horiz-adv-x="825" d="M59 -188q0 47 16.5 88t42 77.5t60.5 69.5t72 62q76 59 130 109t88 95t49 88t15 93q0 31 -4 70.5t-14 80.5l47 12q12 -59 16.5 -102t4.5 -72q0 -92 -62.5 -183t-206.5 -202q-45 -35 -81.5 -67.5t-62.5 -66.5t-40 -69.5t-14 -78.5q0 -57 22.5 -97.5t60.5 -65t90 -34.5 t113 -10q63 0 144.5 12t187.5 45l10 -45q-88 -31 -175 -45t-156 -14q-178 0 -265.5 66.5t-87.5 183.5zM434 948q0 29 18.5 46.5t41.5 17.5q25 0 44 -17.5t19 -46.5q0 -25 -18.5 -42t-42.5 -17q-25 0 -43.5 17t-18.5 42z" />
<glyph unicode="&#xc0;" horiz-adv-x="1052" d="M41 0l448 1397h74l449 -1397h-54l-131 403h-604l-127 -403h-55zM240 453h571l-190 594l-93 292h-6l-92 -292zM299 1729l53 45l205 -293l-31 -21z" />
<glyph unicode="&#xc1;" horiz-adv-x="1052" d="M41 0l448 1397h74l449 -1397h-54l-131 403h-604l-127 -403h-55zM240 453h571l-190 594l-93 292h-6l-92 -292zM485 1481l205 293l53 -45l-227 -269z" />
<glyph unicode="&#xc2;" horiz-adv-x="1052" d="M41 0l448 1397h74l449 -1397h-54l-131 403h-604l-127 -403h-55zM231 1458l265 252h57l262 -250l-20 -24l-271 209l-270 -211zM240 453h571l-190 594l-93 292h-6l-92 -292z" />
<glyph unicode="&#xc3;" horiz-adv-x="1052" d="M41 0l448 1397h74l449 -1397h-54l-131 403h-604l-127 -403h-55zM240 453h571l-190 594l-93 292h-6l-92 -292zM250 1530q16 53 54 85t83 32q33 0 72 -11.5t79 -26t78.5 -25.5t69.5 -11l92 80l25 -15q-18 -45 -49 -80.5t-78 -35.5q-27 0 -67 12t-83 26.5t-83 26.5t-66 12 l-101 -83z" />
<glyph unicode="&#xc4;" horiz-adv-x="1052" d="M41 0l448 1397h74l449 -1397h-54l-131 403h-604l-127 -403h-55zM240 453h571l-190 594l-93 292h-6l-92 -292zM338 1548q0 23 14.5 37t34.5 14q23 0 37 -14t14 -37t-14 -37t-37 -14q-20 0 -34.5 14.5t-14.5 36.5zM610 1548q0 23 14.5 37t34.5 14q23 0 37.5 -14t14.5 -37 t-14.5 -37t-37.5 -14q-20 0 -34.5 14.5t-14.5 36.5z" />
<glyph unicode="&#xc5;" horiz-adv-x="1052" d="M41 0l448 1397h74l449 -1397h-54l-131 403h-604l-127 -403h-55zM240 453h571l-190 594l-93 292h-6l-92 -292zM352 1614q0 68 48.5 118t123.5 50q78 0 123 -49.5t45 -118.5q0 -70 -45 -118t-123 -48q-84 0 -128 49t-44 117zM403 1612q0 -59 31 -91t90 -32q55 0 87 31.5 t32 91.5q0 55 -32 89t-87 34q-59 0 -90 -33t-31 -90z" />
<glyph unicode="&#xc6;" horiz-adv-x="1748" d="M20 0l898 1397h729v-49h-648l-2 -580h564v-51h-564v-668h684v-49h-739l2 403h-602l-258 -403h-64zM373 453h571v886h-6z" />
<glyph unicode="&#xc7;" horiz-adv-x="1103" d="M123 688q0 76 9 159t32.5 164t62.5 154.5t100.5 130t145.5 89t197 32.5q109 0 198.5 -15.5t143.5 -35.5l-17 -47q-78 23 -162.5 36t-158.5 13q-133 0 -226.5 -49t-154 -139t-88 -216t-27.5 -280q0 -119 16.5 -235.5t67.5 -209t148.5 -148.5t259.5 -56q27 0 69.5 3t91 8 t97.5 13.5t90 20.5l14 -41q-33 -12 -78 -21.5t-95 -16.5t-99 -11t-92 -4l-111 -142h35q92 0 152.5 -32.5t60.5 -104.5q0 -39 -19.5 -74.5t-60.5 -63.5t-103.5 -44.5t-150.5 -16.5l-2 35q80 6 132 21.5t83 37t43 47t12 54.5q0 53 -51 77.5t-129 24.5q-10 0 -21.5 -1t-23.5 -1 l-18 29l127 156q-137 6 -232.5 57t-155 141t-86 217t-26.5 285z" />
<glyph unicode="&#xc8;" horiz-adv-x="1003" d="M164 0v1397h743v-49h-690v-582h604v-47l-604 -2v-668h725v-49h-778zM350 1729l53 45l205 -293l-30 -21z" />
<glyph unicode="&#xc9;" horiz-adv-x="1003" d="M164 0v1397h743v-49h-690v-582h604v-47l-604 -2v-668h725v-49h-778zM451 1481l204 293l54 -45l-228 -269z" />
<glyph unicode="&#xca;" horiz-adv-x="1003" d="M164 0v1397h743v-49h-690v-582h604v-47l-604 -2v-668h725v-49h-778zM225 1491l264 252h58l262 -250l-21 -25l-270 209l-270 -211z" />
<glyph unicode="&#xcb;" horiz-adv-x="1003" d="M164 0v1397h743v-49h-690v-582h604v-47l-604 -2v-668h725v-49h-778zM348 1563q0 23 14.5 37t34.5 14q23 0 37.5 -14t14.5 -37t-14.5 -37.5t-37.5 -14.5q-20 0 -34.5 14.5t-14.5 37.5zM621 1563q0 23 14 37t35 14q23 0 37 -14t14 -37t-14.5 -37.5t-36.5 -14.5 q-20 0 -34.5 14.5t-14.5 37.5z" />
<glyph unicode="&#xcc;" horiz-adv-x="421" d="M-20 1729l53 45l205 -293l-31 -21zM184 0v1397h54v-1397h-54z" />
<glyph unicode="&#xcd;" horiz-adv-x="421" d="M174 1481l205 293l53 -45l-227 -269zM184 0v1397h54v-1397h-54z" />
<glyph unicode="&#xce;" horiz-adv-x="421" d="M-80 1462l264 252h58l262 -250l-21 -24l-270 209l-270 -211zM184 0v1397h54v-1397h-54z" />
<glyph unicode="&#xcf;" horiz-adv-x="421" d="M27 1569q0 23 14 37t35 14q23 0 37 -14t14 -37t-14.5 -37t-36.5 -14q-20 0 -34.5 14t-14.5 37zM184 0v1397h54v-1397h-54zM299 1569q0 23 14.5 37t34.5 14q23 0 37 -14t14 -37t-14 -37t-37 -14q-20 0 -34.5 14t-14.5 37z" />
<glyph unicode="&#xd0;" horiz-adv-x="1218" d="M29 711v45h135v641h397q160 0 263.5 -56.5t164 -151.5t84 -221.5t23.5 -265.5q0 -145 -26 -273t-89 -223t-171 -150.5t-271 -55.5h-375v711h-135zM217 51h309q29 0 79 2t107.5 19.5t116 54.5t106.5 107.5t77.5 180t29.5 269.5q0 164 -27.5 277.5t-71.5 187.5t-99.5 114 t-110.5 59t-105 22.5t-83 3.5h-328v-592h432v-45h-432v-660z" />
<glyph unicode="&#xd1;" horiz-adv-x="1284" d="M164 0v1397h59l727 -1125l107 -170h8v1295h55l-2 -1397h-53l-700 1081l-140 219h-6v-1300h-55zM385 1520q16 53 54 84.5t83 31.5q33 0 72 -11t79 -25.5t79 -25.5t69 -11l92 79l25 -14q-18 -45 -49 -81t-78 -36q-27 0 -66.5 12.5t-83 27t-83 26.5t-66.5 12l-100 -84z" />
<glyph unicode="&#xd2;" horiz-adv-x="1327" d="M123 684q0 141 26.5 274.5t91 234.5t171 162.5t266.5 61.5q162 0 264 -61.5t160.5 -163.5t80 -233.5t21.5 -268.5q0 -150 -32.5 -277.5t-99 -222t-165 -148.5t-229.5 -56q-154 0 -260.5 48t-172 138t-94 219t-28.5 293zM178 680q0 -317 115 -482t371 -165q123 0 215 51 t151.5 140t89 207t29.5 253q0 111 -16.5 232.5t-66.5 222t-143.5 166t-244.5 65.5q-152 0 -249 -59.5t-152.5 -156.5t-77 -221t-21.5 -253zM461 1729l53 45l205 -293l-31 -21z" />
<glyph unicode="&#xd3;" horiz-adv-x="1327" d="M123 684q0 141 26.5 274.5t91 234.5t171 162.5t266.5 61.5q162 0 264 -61.5t160.5 -163.5t80 -233.5t21.5 -268.5q0 -150 -32.5 -277.5t-99 -222t-165 -148.5t-229.5 -56q-154 0 -260.5 48t-172 138t-94 219t-28.5 293zM178 680q0 -317 115 -482t371 -165q123 0 215 51 t151.5 140t89 207t29.5 253q0 111 -16.5 232.5t-66.5 222t-143.5 166t-244.5 65.5q-152 0 -249 -59.5t-152.5 -156.5t-77 -221t-21.5 -253zM651 1481l205 293l53 -45l-227 -269z" />
<glyph unicode="&#xd4;" horiz-adv-x="1327" d="M123 684q0 141 26.5 274.5t91 234.5t171 162.5t266.5 61.5q162 0 264 -61.5t160.5 -163.5t80 -233.5t21.5 -268.5q0 -150 -32.5 -277.5t-99 -222t-165 -148.5t-229.5 -56q-154 0 -260.5 48t-172 138t-94 219t-28.5 293zM178 680q0 -317 115 -482t371 -165q123 0 215 51 t151.5 140t89 207t29.5 253q0 111 -16.5 232.5t-66.5 222t-143.5 166t-244.5 65.5q-152 0 -249 -59.5t-152.5 -156.5t-77 -221t-21.5 -253zM391 1491l264 252h58l262 -250l-21 -25l-270 209l-270 -211z" />
<glyph unicode="&#xd5;" horiz-adv-x="1327" d="M123 684q0 141 26.5 274.5t91 234.5t171 162.5t266.5 61.5q162 0 264 -61.5t160.5 -163.5t80 -233.5t21.5 -268.5q0 -150 -32.5 -277.5t-99 -222t-165 -148.5t-229.5 -56q-154 0 -260.5 48t-172 138t-94 219t-28.5 293zM178 680q0 -317 115 -482t371 -165q123 0 215 51 t151.5 140t89 207t29.5 253q0 111 -16.5 232.5t-66.5 222t-143.5 166t-244.5 65.5q-152 0 -249 -59.5t-152.5 -156.5t-77 -221t-21.5 -253zM401 1577q16 53 54.5 85t83.5 32q33 0 71.5 -11.5t78.5 -26t79 -25.5t70 -11l92 80l24 -14q-18 -45 -49 -81t-78 -36q-27 0 -66.5 12 t-82.5 26.5t-83 27t-67 12.5l-100 -84z" />
<glyph unicode="&#xd6;" horiz-adv-x="1327" d="M123 684q0 141 26.5 274.5t91 234.5t171 162.5t266.5 61.5q162 0 264 -61.5t160.5 -163.5t80 -233.5t21.5 -268.5q0 -150 -32.5 -277.5t-99 -222t-165 -148.5t-229.5 -56q-154 0 -260.5 48t-172 138t-94 219t-28.5 293zM178 680q0 -317 115 -482t371 -165q123 0 215 51 t151.5 140t89 207t29.5 253q0 111 -16.5 232.5t-66.5 222t-143.5 166t-244.5 65.5q-152 0 -249 -59.5t-152.5 -156.5t-77 -221t-21.5 -253zM498 1589q0 23 14 37t35 14q23 0 37 -14t14 -37t-14.5 -37t-36.5 -14q-20 0 -34.5 14.5t-14.5 36.5zM770 1589q0 23 14.5 37t34.5 14 q23 0 37 -14t14 -37t-14 -37t-37 -14q-20 0 -34.5 14.5t-14.5 36.5z" />
<glyph unicode="&#xd7;" horiz-adv-x="1087" d="M240 836l36 36l256 -256l238 254l37 -39l-238 -253l256 -254l-37 -37l-253 256l-250 -256l-37 37l248 256z" />
<glyph unicode="&#xd8;" horiz-adv-x="1286" d="M102 684q0 141 27 274.5t91.5 234.5t171 162.5t265.5 61.5q129 0 218.5 -40t148.5 -107l106 147h62l-135 -186q72 -104 99.5 -245.5t27.5 -295.5q0 -150 -33 -277.5t-99.5 -222t-165 -148.5t-229.5 -56q-135 0 -233 35.5t-164 105.5l-98 -137h-56l125 174 q-70 90 -99.5 221t-29.5 299zM158 680q0 -154 25.5 -270.5t80.5 -198.5l727 1012q-53 66 -135 106.5t-199 40.5q-152 0 -249 -59.5t-152 -156.5t-76.5 -221t-21.5 -253zM293 172q121 -139 350 -139q123 0 215 51t151.5 140t89 207t29.5 253q0 61 -4 127t-16 130.5 t-33.5 124.5t-54.5 114z" />
<glyph unicode="&#xd9;" horiz-adv-x="1308" d="M164 489v908h51l2 -901q0 -229 108.5 -345t325.5 -116t329 116.5t112 344.5v901h53v-908q0 -111 -31 -203.5t-92 -159.5t-153.5 -103.5t-217.5 -36.5q-127 0 -219 34.5t-151.5 99t-88 159t-28.5 210.5zM449 1729l53 45l205 -293l-31 -21z" />
<glyph unicode="&#xda;" horiz-adv-x="1308" d="M164 489v908h51l2 -901q0 -229 108.5 -345t325.5 -116t329 116.5t112 344.5v901h53v-908q0 -111 -31 -203.5t-92 -159.5t-153.5 -103.5t-217.5 -36.5q-127 0 -219 34.5t-151.5 99t-88 159t-28.5 210.5zM590 1481l205 293l53 -45l-227 -269z" />
<glyph unicode="&#xdb;" horiz-adv-x="1308" d="M164 489v908h51l2 -901q0 -229 108.5 -345t325.5 -116t329 116.5t112 344.5v901h53v-908q0 -111 -31 -203.5t-92 -159.5t-153.5 -103.5t-217.5 -36.5q-127 0 -219 34.5t-151.5 99t-88 159t-28.5 210.5zM342 1493l274 246h62l270 -244l-20 -25l-281 205l-280 -207z" />
<glyph unicode="&#xdc;" horiz-adv-x="1308" d="M164 489v908h51l2 -901q0 -229 108.5 -345t325.5 -116t329 116.5t112 344.5v901h53v-908q0 -111 -31 -203.5t-92 -159.5t-153.5 -103.5t-217.5 -36.5q-127 0 -219 34.5t-151.5 99t-88 159t-28.5 210.5zM471 1556q0 23 14.5 37.5t34.5 14.5q23 0 37 -14.5t14 -37.5 t-14 -37t-37 -14q-20 0 -34.5 14.5t-14.5 36.5zM743 1556q0 23 14.5 37.5t35.5 14.5q23 0 37 -14.5t14 -37.5t-14.5 -37t-36.5 -14q-20 0 -35 14.5t-15 36.5z" />
<glyph unicode="&#xdd;" horiz-adv-x="929" d="M31 1397h59l252 -475l113 -220h6l106 199l271 496h61l-414 -748v-649h-53v643zM401 1479l205 293l53 -46l-227 -268z" />
<glyph unicode="&#xde;" horiz-adv-x="999" d="M164 0v1397h55v-250h346q80 0 150.5 -22.5t125 -69.5t86 -120t31.5 -171q0 -61 -15 -132t-57 -131.5t-116 -100.5t-190 -40h-361v-360h-55zM219 410h363q57 0 115.5 16t104.5 56t74.5 106.5t28.5 169.5q0 86 -25.5 149.5t-70.5 106.5t-105.5 63.5t-128.5 20.5h-356v-688z " />
<glyph unicode="&#xdf;" horiz-adv-x="1089" d="M68 815v47h153v254q0 45 12.5 104.5t47 112.5t99 90t167.5 37q84 0 141 -23.5t91 -58.5t48.5 -74.5t14.5 -74.5q0 -74 -38 -128t-82 -100.5t-82 -90.5t-38 -97q0 -29 16.5 -60.5t45 -65.5t66.5 -67.5t79 -64.5h-2q39 -31 78 -64.5t69.5 -73.5t49 -88t18.5 -110 q0 -37 -14.5 -81t-48 -81t-89 -61.5t-139.5 -24.5q-68 0 -143.5 14.5t-124.5 34.5l16 48q104 -39 165 -44.5t95 -5.5q57 0 100.5 16.5t73 44t44 63.5t14.5 73q0 49 -14.5 89t-39 74t-54 62.5t-58.5 53.5q-41 37 -86 74.5t-83 77.5t-62.5 82t-24.5 85q0 55 37 104.5t82 97.5 t81.5 98t36.5 106q0 12 -3 44.5t-25.5 65.5t-73.5 58.5t-149 25.5q-66 0 -115 -22.5t-83 -61.5t-51.5 -90t-17.5 -109v-1130h-47v815h-153z" />
<glyph unicode="&#xe0;" horiz-adv-x="974" d="M82 258q0 72 25.5 124t70.5 86t105.5 51.5t128.5 21.5l311 14v104q0 80 -11.5 137.5t-39 94.5t-75.5 54.5t-122 17.5q-76 0 -156.5 -19.5t-154.5 -48.5l-17 39q86 35 173.5 53.5t164.5 18.5q143 0 215 -73t72 -245v-637h137l4 -33q-35 -14 -66.5 -19t-55.5 -5 q-39 0 -55.5 15.5t-16.5 56.5v57l-6 2q-68 -51 -124.5 -79t-100.5 -41t-77.5 -15t-58.5 -2q-80 0 -132 24.5t-83 64.5t-43 87t-12 94zM131 264q0 -117 62.5 -175t179.5 -58q82 0 168 41t182 114v326l-317 -16q-133 -6 -204 -68.5t-71 -163.5zM264 1403l53 45l205 -293 l-30 -20z" />
<glyph unicode="&#xe1;" horiz-adv-x="974" d="M82 258q0 72 25.5 124t70.5 86t105.5 51.5t128.5 21.5l311 14v104q0 80 -11.5 137.5t-39 94.5t-75.5 54.5t-122 17.5q-76 0 -156.5 -19.5t-154.5 -48.5l-17 39q86 35 173.5 53.5t164.5 18.5q143 0 215 -73t72 -245v-637h137l4 -33q-35 -14 -66.5 -19t-55.5 -5 q-39 0 -55.5 15.5t-16.5 56.5v57l-6 2q-68 -51 -124.5 -79t-100.5 -41t-77.5 -15t-58.5 -2q-80 0 -132 24.5t-83 64.5t-43 87t-12 94zM131 264q0 -117 62.5 -175t179.5 -58q82 0 168 41t182 114v326l-317 -16q-133 -6 -204 -68.5t-71 -163.5zM403 1155l205 293l54 -45 l-228 -268z" />
<glyph unicode="&#xe2;" horiz-adv-x="974" d="M82 258q0 72 25.5 124t70.5 86t105.5 51.5t128.5 21.5l311 14v104q0 80 -11.5 137.5t-39 94.5t-75.5 54.5t-122 17.5q-76 0 -156.5 -19.5t-154.5 -48.5l-17 39q86 35 173.5 53.5t164.5 18.5q143 0 215 -73t72 -245v-637h137l4 -33q-35 -14 -66.5 -19t-55.5 -5 q-39 0 -55.5 15.5t-16.5 56.5v57l-6 2q-68 -51 -124.5 -79t-100.5 -41t-77.5 -15t-58.5 -2q-80 0 -132 24.5t-83 64.5t-43 87t-12 94zM131 264q0 -117 62.5 -175t179.5 -58q82 0 168 41t182 114v326l-317 -16q-133 -6 -204 -68.5t-71 -163.5zM203 1151l264 252h57l262 -250 l-20 -25l-270 209l-271 -211z" />
<glyph unicode="&#xe3;" horiz-adv-x="974" d="M82 258q0 72 25.5 124t70.5 86t105.5 51.5t128.5 21.5l311 14v104q0 80 -11.5 137.5t-39 94.5t-75.5 54.5t-122 17.5q-76 0 -156.5 -19.5t-154.5 -48.5l-17 39q86 35 173.5 53.5t164.5 18.5q143 0 215 -73t72 -245v-637h137l4 -33q-35 -14 -66.5 -19t-55.5 -5 q-39 0 -55.5 15.5t-16.5 56.5v57l-6 2q-68 -51 -124.5 -79t-100.5 -41t-77.5 -15t-58.5 -2q-80 0 -132 24.5t-83 64.5t-43 87t-12 94zM131 264q0 -117 62.5 -175t179.5 -58q82 0 168 41t182 114v326l-317 -16q-133 -6 -204 -68.5t-71 -163.5zM201 1204q16 53 54 85t83 32 q33 0 72 -11.5t78.5 -25.5t78.5 -25.5t70 -11.5l92 80l25 -14q-18 -45 -49 -81t-78 -36q-27 0 -67 12.5t-83 26.5t-83 26.5t-66 12.5l-101 -84z" />
<glyph unicode="&#xe4;" horiz-adv-x="974" d="M82 258q0 72 25.5 124t70.5 86t105.5 51.5t128.5 21.5l311 14v104q0 80 -11.5 137.5t-39 94.5t-75.5 54.5t-122 17.5q-76 0 -156.5 -19.5t-154.5 -48.5l-17 39q86 35 173.5 53.5t164.5 18.5q143 0 215 -73t72 -245v-637h137l4 -33q-35 -14 -66.5 -19t-55.5 -5 q-39 0 -55.5 15.5t-16.5 56.5v57l-6 2q-68 -51 -124.5 -79t-100.5 -41t-77.5 -15t-58.5 -2q-80 0 -132 24.5t-83 64.5t-43 87t-12 94zM131 264q0 -117 62.5 -175t179.5 -58q82 0 168 41t182 114v326l-317 -16q-133 -6 -204 -68.5t-71 -163.5zM309 1245q0 23 14.5 37t34.5 14 q23 0 37.5 -14t14.5 -37t-14.5 -37t-37.5 -14q-20 0 -34.5 14.5t-14.5 36.5zM582 1245q0 23 14 37t35 14q23 0 37 -14t14 -37t-14.5 -37t-36.5 -14q-20 0 -34.5 14.5t-14.5 36.5z" />
<glyph unicode="&#xe5;" horiz-adv-x="974" d="M82 258q0 72 25.5 124t70.5 86t105.5 51.5t128.5 21.5l311 14v104q0 80 -11.5 137.5t-39 94.5t-75.5 54.5t-122 17.5q-76 0 -156.5 -19.5t-154.5 -48.5l-17 39q86 35 173.5 53.5t164.5 18.5q143 0 215 -73t72 -245v-637h137l4 -33q-35 -14 -66.5 -19t-55.5 -5 q-39 0 -55.5 15.5t-16.5 56.5v57l-6 2q-68 -51 -124.5 -79t-100.5 -41t-77.5 -15t-58.5 -2q-80 0 -132 24.5t-83 64.5t-43 87t-12 94zM131 264q0 -117 62.5 -175t179.5 -58q82 0 168 41t182 114v326l-317 -16q-133 -6 -204 -68.5t-71 -163.5zM334 1282q0 68 48 118t124 50 q78 0 123 -49t45 -119t-45 -118t-123 -48q-84 0 -128 49t-44 117zM385 1280q0 -59 30.5 -91t90.5 -32q55 0 87 32t32 91q0 55 -32 89t-87 34q-59 0 -90 -33t-31 -90z" />
<glyph unicode="&#xe6;" horiz-adv-x="1552" d="M80 258q0 72 24.5 125t67.5 88t101.5 52.5t123.5 17.5h324v118q0 80 -11.5 137.5t-39 94.5t-75.5 54.5t-122 17.5q-76 0 -156.5 -19.5t-154.5 -48.5l-17 39q86 35 173.5 53.5t164.5 18.5q127 0 197 -56.5t86 -189.5q18 49 47 93t71 78t98 54.5t132 20.5q94 0 156.5 -30 t102.5 -76t59.5 -101.5t28.5 -108.5t9 -97v-65v-32h-698q0 -92 13.5 -176t51 -147.5t102.5 -101.5t167 -38q92 0 161.5 18.5t153.5 59.5l19 -41q-80 -43 -156 -63.5t-170 -20.5q-123 0 -199.5 42t-121.5 113q-78 -59 -144.5 -90t-123 -45t-100.5 -16t-75 -2q-80 0 -132 24.5 t-83 64.5t-43 87t-12 94zM129 264q0 -117 62.5 -175t179.5 -58q39 0 89 7t103 24.5t107.5 46t103.5 69.5q-31 66 -42 145.5t-11 172.5h-318q-133 0 -203.5 -65.5t-70.5 -166.5zM774 541h645q0 92 -15 169.5t-51 133t-94.5 87.5t-146.5 32q-90 0 -151.5 -36t-100.5 -94.5 t-58.5 -135t-27.5 -156.5z" />
<glyph unicode="&#xe7;" horiz-adv-x="882" d="M102 477q0 74 15.5 166t59.5 173t124 136.5t209 55.5q76 0 147.5 -13.5t124.5 -36.5l-18 -43q-78 29 -141.5 38.5t-108.5 9.5q-94 0 -162.5 -35t-112.5 -99.5t-64.5 -154.5t-20.5 -199q0 -88 15 -169t53 -142.5t102.5 -97t162.5 -35.5q86 0 156 18.5t154 52.5l14 -39 q-53 -29 -125 -50t-154 -25l-110 -142h35q92 0 152.5 -32.5t60.5 -104.5q0 -39 -19.5 -74.5t-60.5 -63.5t-103.5 -44t-150.5 -16l-2 34q80 6 132 21.5t83 37t43 47t12 54.5q0 53 -51 77.5t-129 24.5q-10 0 -21.5 -1t-23.5 -1l-19 29l123 152q-104 2 -177 39.5t-118 102.5 t-65.5 154t-20.5 195z" />
<glyph unicode="&#xe8;" horiz-adv-x="946" d="M102 489q0 37 4.5 89.5t18.5 109.5t41 114.5t71 102.5t107.5 73t151.5 28q94 0 156.5 -30t102.5 -76t59.5 -101.5t28.5 -108.5t9 -97v-65v-32h-698q0 -92 13 -176t51 -147.5t102.5 -101.5t166.5 -38q92 0 162 18.5t154 59.5l18 -41q-80 -43 -155.5 -63.5t-169.5 -20.5 q-119 0 -196 40t-121 108.5t-60.5 160.5t-16.5 194zM156 541h645q0 92 -15.5 169.5t-51.5 133t-94 87.5t-146 32q-90 0 -151.5 -36t-100.5 -94.5t-58.5 -135t-27.5 -156.5zM279 1403l53 45l205 -293l-31 -20z" />
<glyph unicode="&#xe9;" horiz-adv-x="946" d="M102 489q0 37 4.5 89.5t18.5 109.5t41 114.5t71 102.5t107.5 73t151.5 28q94 0 156.5 -30t102.5 -76t59.5 -101.5t28.5 -108.5t9 -97v-65v-32h-698q0 -92 13 -176t51 -147.5t102.5 -101.5t166.5 -38q92 0 162 18.5t154 59.5l18 -41q-80 -43 -155.5 -63.5t-169.5 -20.5 q-119 0 -196 40t-121 108.5t-60.5 160.5t-16.5 194zM156 541h645q0 92 -15.5 169.5t-51.5 133t-94 87.5t-146 32q-90 0 -151.5 -36t-100.5 -94.5t-58.5 -135t-27.5 -156.5zM428 1155l205 293l53 -45l-227 -268z" />
<glyph unicode="&#xea;" horiz-adv-x="946" d="M102 489q0 37 4.5 89.5t18.5 109.5t41 114.5t71 102.5t107.5 73t151.5 28q94 0 156.5 -30t102.5 -76t59.5 -101.5t28.5 -108.5t9 -97v-65v-32h-698q0 -92 13 -176t51 -147.5t102.5 -101.5t166.5 -38q92 0 162 18.5t154 59.5l18 -41q-80 -43 -155.5 -63.5t-169.5 -20.5 q-119 0 -196 40t-121 108.5t-60.5 160.5t-16.5 194zM156 541h645q0 92 -15.5 169.5t-51.5 133t-94 87.5t-146 32q-90 0 -151.5 -36t-100.5 -94.5t-58.5 -135t-27.5 -156.5zM213 1114l264 252h58l262 -250l-21 -24l-270 208l-270 -210z" />
<glyph unicode="&#xeb;" horiz-adv-x="946" d="M102 489q0 37 4.5 89.5t18.5 109.5t41 114.5t71 102.5t107.5 73t151.5 28q94 0 156.5 -30t102.5 -76t59.5 -101.5t28.5 -108.5t9 -97v-65v-32h-698q0 -92 13 -176t51 -147.5t102.5 -101.5t166.5 -38q92 0 162 18.5t154 59.5l18 -41q-80 -43 -155.5 -63.5t-169.5 -20.5 q-119 0 -196 40t-121 108.5t-60.5 160.5t-16.5 194zM156 541h645q0 92 -15.5 169.5t-51.5 133t-94 87.5t-146 32q-90 0 -151.5 -36t-100.5 -94.5t-58.5 -135t-27.5 -156.5zM324 1245q0 23 14 37t35 14q23 0 37 -14t14 -37t-14.5 -37t-36.5 -14q-20 0 -34.5 14.5t-14.5 36.5z M596 1245q0 23 14.5 37t34.5 14q23 0 37 -14t14 -37t-14 -37t-37 -14q-20 0 -34.5 14.5t-14.5 36.5z" />
<glyph unicode="&#xec;" horiz-adv-x="385" d="M-29 1403l54 45l204 -293l-30 -20zM170 0v995h47v-995h-47z" />
<glyph unicode="&#xed;" horiz-adv-x="385" d="M152 1155l204 293l54 -45l-228 -268zM170 0v995h47v-995h-47z" />
<glyph unicode="&#xee;" horiz-adv-x="385" d="M-98 1147l264 252h57l262 -250l-20 -25l-270 209l-271 -211zM170 0v995h47v-995h-47z" />
<glyph unicode="&#xef;" horiz-adv-x="385" d="M6 1245q0 23 14.5 37t34.5 14q23 0 37 -14t14 -37t-14 -37t-37 -14q-20 0 -34.5 14.5t-14.5 36.5zM170 0v995h47v-995h-47zM279 1245q0 23 14 37t35 14q23 0 37 -14t14 -37t-14.5 -37t-36.5 -14q-20 0 -34.5 14.5t-14.5 36.5z" />
<glyph unicode="&#xf0;" horiz-adv-x="929" d="M82 438q0 70 18.5 154t63.5 156.5t121.5 122t191.5 49.5q106 0 184 -39t119 -86q-25 104 -70.5 191t-111.5 161l-186 -127l-25 35l182 125q-61 66 -135 118t-160 97l21 37q92 -47 171 -102.5t142 -123.5l154 105l24 -37l-147 -100q106 -123 162.5 -280t56.5 -351 q0 -39 -4 -95.5t-17.5 -119t-40 -123t-70.5 -109.5t-108.5 -79.5t-156.5 -30.5q-111 0 -183.5 44t-115.5 111.5t-61.5 146.5t-18.5 150zM133 440q0 -70 15.5 -142.5t54.5 -132t104.5 -97t167.5 -37.5q76 0 131.5 27.5t92 72.5t58 102.5t34 117t15.5 114.5t3 96q0 80 -12 154 q-53 76 -139.5 119t-180.5 43q-100 0 -165.5 -43t-105.5 -107.5t-56.5 -141.5t-16.5 -145z" />
<glyph unicode="&#xf1;" horiz-adv-x="942" d="M125 0v995h49q0 -25 -1 -49t-1 -49l6 -4q102 55 205.5 85t175.5 30q92 0 143.5 -25t78 -63.5t32.5 -85t6 -91.5v-743h-49v684q0 61 -4 112.5t-24.5 87.5t-63.5 56.5t-121 20.5q-45 0 -95 -11.5t-101.5 -29t-100.5 -40t-88 -42.5v-838h-47zM168 1231q16 53 54 85t83 32 q33 0 72 -11.5t79 -26t78.5 -25.5t69.5 -11l92 80l25 -15q-18 -45 -49 -80.5t-78 -35.5q-27 0 -67 12t-83 26.5t-82.5 26.5t-66.5 12l-100 -83z" />
<glyph unicode="&#xf2;" horiz-adv-x="976" d="M102 483q0 94 20.5 188.5t67 168t122 120t186.5 46.5q115 0 188.5 -46.5t115.5 -120t57 -165.5t15 -185q0 -90 -16 -179t-58 -161.5t-117 -117.5t-191 -45q-117 0 -192 42t-119 111.5t-61.5 158.5t-17.5 185zM154 481q0 -86 12 -167t49 -143t104.5 -100t178.5 -38 q102 0 165.5 42t99.5 106.5t49 144t13 157.5q0 76 -12 161t-47 155.5t-99.5 117t-168.5 46.5q-102 0 -169 -43t-106 -113t-54 -155t-15 -171zM283 1403l53 45l205 -293l-31 -20z" />
<glyph unicode="&#xf3;" horiz-adv-x="976" d="M102 483q0 94 20.5 188.5t67 168t122 120t186.5 46.5q115 0 188.5 -46.5t115.5 -120t57 -165.5t15 -185q0 -90 -16 -179t-58 -161.5t-117 -117.5t-191 -45q-117 0 -192 42t-119 111.5t-61.5 158.5t-17.5 185zM154 481q0 -86 12 -167t49 -143t104.5 -100t178.5 -38 q102 0 165.5 42t99.5 106.5t49 144t13 157.5q0 76 -12 161t-47 155.5t-99.5 117t-168.5 46.5q-102 0 -169 -43t-106 -113t-54 -155t-15 -171zM432 1155l205 293l53 -45l-227 -268z" />
<glyph unicode="&#xf4;" horiz-adv-x="976" d="M102 483q0 94 20.5 188.5t67 168t122 120t186.5 46.5q115 0 188.5 -46.5t115.5 -120t57 -165.5t15 -185q0 -90 -16 -179t-58 -161.5t-117 -117.5t-191 -45q-117 0 -192 42t-119 111.5t-61.5 158.5t-17.5 185zM154 481q0 -86 12 -167t49 -143t104.5 -100t178.5 -38 q102 0 165.5 42t99.5 106.5t49 144t13 157.5q0 76 -12 161t-47 155.5t-99.5 117t-168.5 46.5q-102 0 -169 -43t-106 -113t-54 -155t-15 -171zM213 1151l264 252h58l262 -250l-21 -25l-270 209l-270 -211z" />
<glyph unicode="&#xf5;" horiz-adv-x="976" d="M102 483q0 94 20.5 188.5t67 168t122 120t186.5 46.5q115 0 188.5 -46.5t115.5 -120t57 -165.5t15 -185q0 -90 -16 -179t-58 -161.5t-117 -117.5t-191 -45q-117 0 -192 42t-119 111.5t-61.5 158.5t-17.5 185zM154 481q0 -86 12 -167t49 -143t104.5 -100t178.5 -38 q102 0 165.5 42t99.5 106.5t49 144t13 157.5q0 76 -12 161t-47 155.5t-99.5 117t-168.5 46.5q-102 0 -169 -43t-106 -113t-54 -155t-15 -171zM229 1204q16 53 54.5 85t83.5 32q33 0 71.5 -11.5t78.5 -25.5t79 -25.5t70 -11.5l92 80l24 -14q-18 -45 -49 -81t-78 -36 q-27 0 -66.5 12.5t-82.5 26.5t-83 26.5t-67 12.5l-100 -84z" />
<glyph unicode="&#xf6;" horiz-adv-x="976" d="M102 483q0 94 20.5 188.5t67 168t122 120t186.5 46.5q115 0 188.5 -46.5t115.5 -120t57 -165.5t15 -185q0 -90 -16 -179t-58 -161.5t-117 -117.5t-191 -45q-117 0 -192 42t-119 111.5t-61.5 158.5t-17.5 185zM154 481q0 -86 12 -167t49 -143t104.5 -100t178.5 -38 q102 0 165.5 42t99.5 106.5t49 144t13 157.5q0 76 -12 161t-47 155.5t-99.5 117t-168.5 46.5q-102 0 -169 -43t-106 -113t-54 -155t-15 -171zM322 1245q0 23 14 37t35 14q23 0 37 -14t14 -37t-14.5 -37t-36.5 -14q-20 0 -34.5 14.5t-14.5 36.5zM594 1245q0 23 14.5 37 t34.5 14q23 0 37 -14t14 -37t-14 -37t-37 -14q-20 0 -34.5 14.5t-14.5 36.5z" />
<glyph unicode="&#xf7;" d="M143 580v51h736v-51h-736zM455 334q0 23 18.5 41t44.5 18q23 0 41.5 -18.5t18.5 -40.5q0 -27 -18.5 -45.5t-41.5 -18.5q-27 0 -45 18.5t-18 45.5zM455 877q0 23 18.5 41t44.5 18q23 0 41.5 -18.5t18.5 -40.5q0 -27 -18.5 -45.5t-41.5 -18.5q-27 0 -45 18.5t-18 45.5z" />
<glyph unicode="&#xf8;" horiz-adv-x="935" d="M82 483q0 94 20.5 188.5t66.5 168t121.5 120t186.5 46.5q90 0 152.5 -29t105.5 -76l76 105h49l-98 -138q53 -76 72.5 -176t19.5 -203q0 -90 -16.5 -179t-58.5 -161.5t-116.5 -117.5t-191.5 -45q-94 0 -159.5 26.5t-110.5 73.5l-70 -96h-45l90 127q-53 72 -73.5 167 t-20.5 199zM133 481q0 -92 14.5 -176t57.5 -149l502 704q-37 47 -93.5 75t-136.5 28q-102 0 -168.5 -43t-105.5 -113t-54.5 -155t-15.5 -171zM227 125q41 -43 100.5 -67.5t149.5 -24.5q102 0 166 42t99.5 106.5t49 144t13.5 157.5q0 84 -15.5 176.5t-58.5 165.5z" />
<glyph unicode="&#xf9;" horiz-adv-x="925" d="M125 274v721h47v-696q0 -63 6 -114.5t27.5 -87.5t63.5 -55t116 -19q37 0 82 10t94 30.5t99.5 51t95.5 71.5l-2 809h49v-995h-47v131l-6 2q-63 -53 -120 -83t-104 -46t-82.5 -20t-56.5 -4q-102 0 -155.5 29.5t-77 73.5t-26.5 95t-3 96zM260 1403l53 45l205 -293l-31 -20z " />
<glyph unicode="&#xfa;" horiz-adv-x="925" d="M125 274v721h47v-696q0 -63 6 -114.5t27.5 -87.5t63.5 -55t116 -19q37 0 82 10t94 30.5t99.5 51t95.5 71.5l-2 809h49v-995h-47v131l-6 2q-63 -53 -120 -83t-104 -46t-82.5 -20t-56.5 -4q-102 0 -155.5 29.5t-77 73.5t-26.5 95t-3 96zM399 1155l205 293l53 -45l-227 -268 z" />
<glyph unicode="&#xfb;" horiz-adv-x="925" d="M125 274v721h47v-696q0 -63 6 -114.5t27.5 -87.5t63.5 -55t116 -19q37 0 82 10t94 30.5t99.5 51t95.5 71.5l-2 809h49v-995h-47v131l-6 2q-63 -53 -120 -83t-104 -46t-82.5 -20t-56.5 -4q-102 0 -155.5 29.5t-77 73.5t-26.5 95t-3 96zM166 1151l264 252h57l263 -250 l-21 -25l-270 209l-271 -211z" />
<glyph unicode="&#xfc;" horiz-adv-x="925" d="M125 274v721h47v-696q0 -63 6 -114.5t27.5 -87.5t63.5 -55t116 -19q37 0 82 10t94 30.5t99.5 51t95.5 71.5l-2 809h49v-995h-47v131l-6 2q-63 -53 -120 -83t-104 -46t-82.5 -20t-56.5 -4q-102 0 -155.5 29.5t-77 73.5t-26.5 95t-3 96zM268 1245q0 23 14.5 37t34.5 14 q23 0 37.5 -14t14.5 -37t-14.5 -37t-37.5 -14q-20 0 -34.5 14.5t-14.5 36.5zM541 1245q0 23 14 37t35 14q23 0 37 -14t14 -37t-14.5 -37t-36.5 -14q-20 0 -34.5 14.5t-14.5 36.5z" />
<glyph unicode="&#xfd;" horiz-adv-x="821" d="M-33 -422l10 45q66 -12 100 -17t68 -5q27 0 49.5 1t44 15t42 47t41.5 94l77 242h-28l-342 995h49l205 -596l123 -362h8l114 364l189 594h51l-395 -1239q-31 -94 -74 -149.5t-135 -55.5q-35 0 -84 5.5t-113 21.5zM338 1155l205 293l53 -45l-227 -268z" />
<glyph unicode="&#xfe;" horiz-adv-x="954" d="M123 -436v1886h45v-573q74 59 161 95t175 36q98 0 164.5 -37t107.5 -102.5t58.5 -154.5t17.5 -194q0 -113 -20.5 -210t-65.5 -167.5t-116.5 -111.5t-174.5 -41q-61 0 -138 17.5t-169 68.5v-512h-45zM168 131q59 -37 140 -65.5t169 -28.5q68 0 127.5 25.5t102.5 83 t68.5 150.5t25.5 228q0 123 -21.5 207t-62.5 135.5t-98.5 74t-126.5 22.5q-39 0 -83 -11.5t-87 -31t-83 -45t-71 -56.5v-688z" />
<glyph unicode="&#xff;" horiz-adv-x="821" d="M-33 -422l10 45q66 -12 100 -17t68 -5q27 0 49.5 1t44 15t42 47t41.5 94l77 242h-28l-342 995h49l205 -596l123 -362h8l114 364l189 594h51l-395 -1239q-31 -94 -74 -149.5t-135 -55.5q-35 0 -84 5.5t-113 21.5zM227 1245q0 23 14.5 37t34.5 14q23 0 37.5 -14t14.5 -37 t-14.5 -37t-37.5 -14q-20 0 -34.5 14.5t-14.5 36.5zM500 1245q0 23 14 37t35 14q23 0 37 -14t14 -37t-14.5 -37t-36.5 -14q-20 0 -34.5 14.5t-14.5 36.5z" />
<glyph unicode="&#x152;" horiz-adv-x="1523" d="M109 684q0 141 26.5 274.5t91 234.5t171 162.5t266.5 61.5q45 0 86 -5t75 -15h596v-49h-639v-582h553v-47l-553 -2v-668h674v-49h-678q-27 -6 -55.5 -9t-58.5 -5q-154 0 -260.5 48t-172 138t-94 219t-28.5 293zM164 680q0 -317 114.5 -482t370.5 -165q39 0 80 6v1329 q-16 2 -32.5 2h-32.5q-152 0 -249.5 -59.5t-152.5 -156.5t-76.5 -221t-21.5 -253z" />
<glyph unicode="&#x153;" horiz-adv-x="1648" d="M92 483q0 94 20.5 188.5t66.5 168t122 120t186 46.5q82 0 142.5 -25t103.5 -66t68.5 -96t40.5 -119q14 55 41.5 110.5t70.5 98.5t106.5 70t149.5 27q94 0 157 -30t102.5 -76t59 -101.5t29 -108.5t9.5 -97v-65v-32h-699q0 -92 13.5 -176t51.5 -147.5t102.5 -101.5 t166.5 -38q92 0 162 18.5t154 59.5l18 -41q-80 -43 -155.5 -63.5t-170.5 -20.5q-170 0 -255 78.5t-115 205.5q-16 -59 -44 -111.5t-71 -90t-103.5 -60t-140.5 -22.5q-117 0 -191.5 42t-118.5 111.5t-61.5 158.5t-17.5 185zM143 481q0 -86 12.5 -167t49.5 -143t104.5 -100 t177.5 -38q102 0 166 42t99.5 106.5t49 144t13.5 157.5q0 76 -12 161t-47 155.5t-99.5 117t-169.5 46.5q-102 0 -168.5 -43t-105.5 -113t-54.5 -155t-15.5 -171zM870 541h646q0 92 -15.5 169.5t-51.5 133t-94.5 87.5t-146.5 32q-90 0 -151.5 -36t-100 -94.5t-58 -135 t-28.5 -156.5z" />
<glyph unicode="&#x178;" horiz-adv-x="929" d="M31 1397h59l252 -475l113 -220h6l106 199l271 496h61l-414 -748v-649h-53v643zM272 1526q0 23 14.5 37t35.5 14q23 0 37 -14t14 -37t-14.5 -37t-36.5 -14q-20 0 -35 14t-15 37zM545 1526q0 23 14 37t35 14q23 0 37 -14t14 -37t-14.5 -37t-36.5 -14q-20 0 -34.5 14 t-14.5 37z" />
<glyph unicode="&#x2c6;" horiz-adv-x="954" d="M158 1151l264 252h57l262 -250l-20 -25l-270 209l-271 -211z" />
<glyph unicode="&#x2dc;" horiz-adv-x="954" d="M195 1204q16 53 54 85t83 32q33 0 71.5 -11.5t78.5 -25.5t79 -25.5t70 -11.5l92 80l25 -14q-18 -45 -49 -81t-78 -36q-27 0 -67 12.5t-83 26.5t-83 26.5t-66 12.5l-101 -84z" />
<glyph unicode="&#x2000;" horiz-adv-x="891" />
<glyph unicode="&#x2001;" horiz-adv-x="1782" />
<glyph unicode="&#x2002;" horiz-adv-x="891" />
<glyph unicode="&#x2003;" horiz-adv-x="1782" />
<glyph unicode="&#x2004;" horiz-adv-x="594" />
<glyph unicode="&#x2005;" horiz-adv-x="445" />
<glyph unicode="&#x2006;" horiz-adv-x="297" />
<glyph unicode="&#x2007;" horiz-adv-x="297" />
<glyph unicode="&#x2008;" horiz-adv-x="222" />
<glyph unicode="&#x2009;" horiz-adv-x="356" />
<glyph unicode="&#x200a;" horiz-adv-x="99" />
<glyph unicode="&#x2010;" horiz-adv-x="655" d="M102 485v56h451v-56h-451z" />
<glyph unicode="&#x2011;" horiz-adv-x="655" d="M102 485v56h451v-56h-451z" />
<glyph unicode="&#x2012;" horiz-adv-x="655" d="M102 485v56h451v-56h-451z" />
<glyph unicode="&#x2013;" d="M51 487v58h928v-58h-928z" />
<glyph unicode="&#x2014;" horiz-adv-x="2048" d="M49 487v58h1940v-58h-1940z" />
<glyph unicode="&#x2018;" horiz-adv-x="382" d="M135 1241q0 47 26.5 107.5t74.5 101.5l16 -16q-31 -43 -42 -83t-11 -75q23 0 38 -14.5t15 -36.5q0 -25 -14.5 -42.5t-38.5 -17.5q-29 0 -46.5 18.5t-17.5 57.5z" />
<glyph unicode="&#x2019;" horiz-adv-x="382" d="M137 1184q31 43 42 82.5t11 74.5q-23 0 -38 14.5t-15 37.5q0 25 14.5 42t38.5 17q29 0 46.5 -18.5t17.5 -57.5q0 -47 -26.5 -107.5t-73.5 -101.5z" />
<glyph unicode="&#x201a;" horiz-adv-x="239" d="M61 47q0 25 14.5 42t39.5 17q29 0 46 -18t17 -57q0 -23 -7 -53.5t-19.5 -63.5t-31 -62.5t-42.5 -50.5l-17 17q31 43 42.5 93t11.5 85q-23 0 -38.5 14.5t-15.5 36.5z" />
<glyph unicode="&#x201c;" horiz-adv-x="516" d="M135 1241q0 47 26.5 107.5t74.5 101.5l16 -16q-31 -43 -42 -83t-11 -75q23 0 38 -14.5t15 -36.5q0 -25 -14.5 -42.5t-38.5 -17.5q-29 0 -46.5 18.5t-17.5 57.5zM291 1241q0 47 26.5 107.5t73.5 101.5l17 -16q-31 -43 -42.5 -83t-11.5 -75q23 0 38.5 -14.5t15.5 -36.5 q0 -25 -14.5 -42.5t-39.5 -17.5q-29 0 -46 18.5t-17 57.5z" />
<glyph unicode="&#x201d;" horiz-adv-x="516" d="M137 1184q31 43 42 82.5t11 74.5q-23 0 -38 14.5t-15 37.5q0 25 14.5 42t38.5 17q29 0 46.5 -18.5t17.5 -57.5q0 -47 -26.5 -107.5t-73.5 -101.5zM293 1184q31 43 42 82.5t11 74.5q-23 0 -38 14.5t-15 37.5q0 25 14.5 42t38.5 17q29 0 46.5 -18.5t17.5 -57.5 q0 -47 -27 -107.5t-74 -101.5z" />
<glyph unicode="&#x201e;" horiz-adv-x="407" d="M61 47q0 25 14.5 42t39.5 17q29 0 46 -18t17 -57q0 -23 -7 -53.5t-19.5 -63.5t-31 -62.5t-42.5 -50.5l-17 17q31 43 42.5 93t11.5 85q-23 0 -38.5 14.5t-15.5 36.5zM221 47q0 25 14.5 42t38.5 17q29 0 46.5 -18t17.5 -57q0 -23 -7 -53.5t-19.5 -63.5t-31 -62.5 t-42.5 -50.5l-17 17q31 43 42 93t11 85q-23 0 -38 14.5t-15 36.5z" />
<glyph unicode="&#x2022;" horiz-adv-x="512" d="M127 547q0 57 36 94t91 37q59 0 95 -37t36 -94t-36 -94t-95 -37q-55 0 -91 36.5t-36 94.5z" />
<glyph unicode="&#x2026;" horiz-adv-x="989" d="M86 55q0 23 17.5 39.5t39.5 16.5q23 0 39.5 -16.5t16.5 -39.5t-16.5 -40t-39.5 -17t-40 17t-17 40zM416 55q0 23 17.5 39.5t39.5 16.5q23 0 39 -16.5t16 -39.5t-16 -40t-39 -17t-40 17t-17 40zM754 55q0 23 17 39.5t40 16.5t39 -16.5t16 -39.5t-16 -40t-39 -17t-40 17 t-17 40z" />
<glyph unicode="&#x202f;" horiz-adv-x="356" />
<glyph unicode="&#x2039;" horiz-adv-x="600" d="M141 334v63l275 287l26 -22l-237 -297l239 -295l-26 -25z" />
<glyph unicode="&#x203a;" horiz-adv-x="600" d="M127 70l240 295l-238 297l27 22l274 -287v-63l-276 -289z" />
<glyph unicode="&#x205f;" horiz-adv-x="445" />
<glyph unicode="&#x20ac;" d="M41 573v48h821v-48h-682q4 -104 24.5 -201.5t71 -172t138.5 -120.5t227 -46q47 0 136 11t194 36l12 -43q-31 -10 -75 -19.5t-92 -16.5t-95 -11t-86 -4q-129 0 -222.5 41t-154.5 116.5t-93 184t-38 245.5h-86zM41 750v43h90q8 100 38 203.5t89 185.5t152.5 134t230.5 52 q102 0 190.5 -15.5t139.5 -33.5l-13 -47q-74 25 -159.5 37t-155.5 12q-109 0 -190.5 -37t-138 -106.5t-89 -167t-43.5 -217.5h680v-43h-821z" />
<glyph unicode="&#x2122;" horiz-adv-x="1257" d="M94 1354v43h434v-43h-198v-549h-41v549h-195zM596 803v594h41l215 -457l221 457h39v-594h-39v506l-205 -410h-41l-194 410v-506h-37z" />
<glyph unicode="&#x25fc;" horiz-adv-x="995" d="M0 0v995h995v-995h-995z" />
</font>
</defs>
</svg>
